/* XPM */
static char *result[] = {
/* columns rows colors chars-per-pixel */
"60 60 193 2 ",
"   c #060708",
".  c #0B0C0F",
"X  c #080204",
"o  c #1B0307",
"O  c #1C0609",
"+  c #1B0A0D",
"@  c #130A0A",
"#  c #0C0D11",
"$  c #170D11",
"%  c #1C0D12",
"&  c #0E1115",
"*  c #0A1819",
"=  c #101317",
"-  c #1A1314",
";  c #12151A",
":  c #18171C",
">  c #15191D",
",  c #181A1E",
"<  c #220304",
"1  c #270A0B",
"2  c #32060F",
"3  c #340B0A",
"4  c #2F170F",
"5  c #240C12",
"6  c #2E0B12",
"7  c #340B13",
"8  c #3A0D14",
"9  c #261316",
"0  c #2E1D1B",
"q  c #241417",
"w  c #321414",
"e  c #361118",
"r  c #3C1219",
"t  c #391918",
"y  c #3B140D",
"u  c #23201D",
"i  c #3C261F",
"p  c #171B20",
"a  c #181C21",
"s  c #381E23",
"d  c #1E2324",
"f  c #192528",
"g  c #212C2D",
"h  c #292D2E",
"j  c #272526",
"k  c #312D2A",
"l  c #362526",
"z  c #3E312C",
"x  c #2A2E31",
"c  c #312A31",
"v  c #233132",
"b  c #2C3336",
"n  c #353C3C",
"m  c #383B3C",
"M  c #363434",
"N  c #440F19",
"B  c #470D17",
"V  c #44111A",
"C  c #451518",
"Z  c #51141E",
"A  c #58141E",
"S  c #43150C",
"D  c #671D1E",
"F  c #502B1D",
"G  c #4D1821",
"H  c #541421",
"J  c #5B1420",
"K  c #541A22",
"L  c #5A1925",
"P  c #691C2A",
"I  c #671B24",
"U  c #771B26",
"Y  c #472725",
"T  c #5E222B",
"R  c #523327",
"E  c #473127",
"W  c #68252C",
"Q  c #7E292D",
"!  c #79222B",
"~  c #623E27",
"^  c #772633",
"/  c #6F3434",
"(  c #694235",
")  c #3C3F43",
"_  c #643F48",
"`  c #354142",
"'  c #3D4246",
"]  c #3A4748",
"[  c #3D4C4D",
"{  c #3B5454",
"}  c #4A4545",
"|  c #434A4B",
" . c #5E464E",
".. c #555959",
"X. c #7D5B48",
"o. c #655B57",
"O. c #4D6263",
"+. c #556466",
"@. c #556D6E",
"#. c #5F6D71",
"$. c #597071",
"%. c #6C6E6E",
"&. c #616C6E",
"*. c #637779",
"=. c #6C7578",
"-. c #767D7F",
";. c #747878",
":. c #941D31",
">. c #99232D",
",. c #8B2433",
"<. c #862932",
"1. c #9D2C39",
"2. c #9A2733",
"3. c #9E343E",
"4. c #852F35",
"5. c #A6212A",
"6. c #AC2837",
"7. c #AF353B",
"8. c #A5313B",
"9. c #963E42",
"0. c #825C4B",
"q. c #8D4451",
"w. c #A74747",
"e. c #B54646",
"r. c #B2564D",
"t. c #AB515E",
"y. c #B4615D",
"u. c #915E63",
"i. c #926269",
"p. c #9F7E66",
"a. c #9F7178",
"s. c #956973",
"d. c #AB626D",
"f. c #B6636E",
"g. c #BB6663",
"h. c #C8484B",
"j. c #D1544F",
"k. c #CF525A",
"l. c #D75F5E",
"z. c #CA665E",
"x. c #D1625E",
"c. c #CE6C64",
"v. c #CB726C",
"b. c #D8756D",
"n. c #D56C68",
"m. c #87807C",
"M. c #BF7C85",
"N. c #B77884",
"B. c #6C8281",
"V. c #7B8789",
"C. c #758789",
"Z. c #7C8E91",
"A. c #848E8C",
"S. c #88999C",
"D. c #889598",
"F. c #969999",
"G. c #9CA29F",
"H. c #8E9DA2",
"J. c #909CA0",
"K. c #B99DA3",
"L. c #9DAAAC",
"P. c #97A3A7",
"I. c #A3A8AA",
"U. c #B0AFAF",
"Y. c #A4AFB3",
"T. c #A5B0B4",
"R. c #AAB4B6",
"E. c #B6B8BA",
"W. c #CB8488",
"Q. c #E09281",
"!. c #CA9FA5",
"~. c #D59AA4",
"^. c #D5AEB4",
"/. c #E9BBBD",
"(. c #B7BEC0",
"). c #E9BBC2",
"_. c #B9C2C5",
"`. c #CBCBCC",
"'. c #C5C6C7",
"]. c #D8CFCD",
"[. c #C8CED0",
"{. c #CFD5D6",
"}. c #D7D3D4",
"|. c #DCDDDD",
" X c #EBDCDE",
".X c #E8C8CC",
"XX c #E3DFE0",
"oX c #DFE1E2",
"OX c #E3E3E3",
"+X c #E9E5E6",
"@X c #F0F0EF",
"#X c #F8F7F7",
"$X c #F4E2E3",
/* pixels */
"> ; & # # = ; ; p ; ; p ; = ; ; ; ; ; > ; > ; ; ; = # # = p ; ; ; > ; ; > ; > = > > ; ; ; * > ; & # # = > ; ; > ; ; ; ; ",
"a > ; & # > p a a p p p a a a a a a a a p p a a p ; # & ; a a a p p a a a a a a , a a a a a a > ; # & > a a a a a p a a ",
"p p a & # a p p p p p p p p p p p p p p p p p p a a # = a p a p p p p p > p p p p p , p p p p p a # = a p p p p p p p p ",
"p p p & # a p p p p p p p p p p p p p p p p p p p p # = a p p p p p p p a p p p p p p p p p p p a # = p p p p p p p p p ",
"p p p = # a a p p p p p p p p a p p p p p p p p p p # = a p p p p p p p p p p p p p p p p p a a a # = a p p p p p p p p ",
"p p p = # a p p p p p p p p p a p p p p p p p p p p # = a p p p p p p p p p p p p p p p p p > p p # = p p p p p p p p p ",
"a p ; & # ; p a a p a a a a a a p a a a p p p a p ; # & ; p a a p a a > a a a a a a a , a a a > ; # & p a a a a p a a a ",
"; = # # # # = ; = ; ; = ; ; ; ; ; ; ; ; ; ; ; ; & & # # & = ; ; ; ; ; ; ; ; ; ; ; ; ; ; ; ; ; & # # # & ; ; = ; ; ; ; ; ",
"# # # & # # # # # & # # # # # # & . & . . . # . # & & # & # # # # # # # # & # # . . . # # # # # # # # # & # # & # # # # ",
"a a p a p p a a a a a a a a a a a > = . & * a a p p p p p p a a a a a a a a , a > * # & ; a a p a a a a a p a a a a a a ",
"p p p p p p p p p p a a p p p p a a > . & , a p p p p p p p a p p p p a > p p a > > . ; p a p p p p a p p p p p p p a a ",
"p p p p p p p p p p p p p p p p a > a . * u > , p p p p p p p p p p p , a p p p , > . > a p p p p p p p p p p p p p p p ",
"p p p p p p p p p p p p p p p p a a , . = a a a d , , a p p p p a , a a p a p p > * # ; p p p p p p p p p p p p p p p p ",
"p p p p p p p p p p p p p p p p a > a & = a a > > , a , p p p p a a a , > > p , d > . > a p p p p p p p p p p p p p p p ",
"p p p p p p p p p p p p p p p p , > > . & a > p > a a , 9 0 0 l u , > p a a , a > ; . ; p p p p p p p p p p p p p p p p ",
"a a a a a a p p a a p p p p a p a > * . & ; a a p a a : S R X.p.X.- p p p a a a > & . & ; p p p p p p p p p a a p p p p ",
"# # # # # # # # # # # # & # # # # . # . . . . # # # & + y F ( X.( 1 # & . & . # . . . . . . # # # # # # # # # # # & # # ",
"& ; & & & = & & = = = # # # # = * = = = = = = = = a =.} < 3 3 S i o.;.j # & = * = = = = = = = = & = = & = = = & & # # # ",
"a a a a a a a a a a p = # = > p a a a a a a a a = j H.A.z 4 i E o.U.[.n # > d a a a , d a a a a a a a a a a a p p # # ; ",
"p p p p a a p p p p p > # > p p p , a , p p p p > ; ` =.%.;.G.G.F.F.&.> > , > > p , , , p p p p p p p p p p p p a ; # p ",
"p p p p p p p p p p p p # ; p p p p p p p p p p a a   @ ..A.I.(.a.=   . p p p p p p p p p p p p p p p p p p p p a ; # p ",
"p p p p p p p p p p p p . > a p p p p p p p p p a > h k q u k k j M b . p p p p p p p p p p p p p p p p p p p p a ; # p ",
"p p p p p p p p p a p ; # ; a , p p p p p p p > = ` B.{ - 4 R i x V.`.} & p p p p p p p p p p p p p p p p p p p p ; # p ",
"a a a a a a a a a a p = . = > , p a a a a a a : ` C.+.v u u E } O.Z.|.`.m # a a a a a a a a p a p a a a a a p a ; & # & ",
"= ; = = = = ; ; = = = # # # = > ; = ; ; = = $ l B.O.v > g ] n [ C.H.H.XX'.) = ; = = = = = = ; = ; = = = = = ; = & # # & ",
"# # . # # # . . . # # # # # . . # # # # # # 7 <. .f * f ] B.$.+.L.T.J.`.#X'.c . # # # # # # # . # # # # # # . # # # # # ",
"p p p p p p p p p p p p p = & . $ = p p p % B 5.>.y . v +.H.C.-.{.XX(.T.|.@X... ; p p p p p p p p p p p p p p p p p p = ",
"p p p p p p p p p p p p a > ; # p p a p : e ,.6.h.w.C b O.S.-.-.XX#XXXY.T.XXU.) a a p p p p p p p p p p p p p p a p p p ",
"p p p p p p p p p p p p p p ; . p p p p 5 7 Q e.h.x.P x { *.C.C.I.XXXXY.S.'.@X;.d p p p p p p p p p p p p p p p p p p a ",
"p p p p p p p p p p p p p p p . p p p p % X t e.h.k.9.t k ' $.*.#.P.(.P.H.(.XX%.d a p p p p p p p p p p p p p p p p p p ",
"p p p p p p p p p p p p p p p . p p p p + @ < I h.x.n.w.<.Y c ] [ @.Z.S.H.(.XX=.a p p p p p p p p p p p p p p p p p p p ",
"p p p p p p p p p p p p p p ; # = p p p - 8 5 O 2.j.w.w.x.r.! Y ) ) ) O.H.{.XX%.d p p p p p p p p p p p p p p p p p p p ",
"p p p p p p p p p p p p p ; = # & p p p % N G X 6 <.8 6 4.g.v.e.P ^ G h B. XR.O., a a , a , a a p p p p p p p p p p p ; ",
"# # & # # & # # # # # & # # . . # # # # + 8 P e + o B A 7 $ / x.b.Q.g.I i.|.B.v ; # . # # # # & # # & # # # # # # # # # ",
"= # # # & = = = & ; & & & & = = = & & & & $ H ^ 5 5 ! ,.J 2 O W z.c.v.W./.^.} & = = = = & ; # # # # & & & * = = & * & & ",
"p = # & ; a a p p p p a a a a a a a a p a : e P 6 7 3.8.,.,.H 7 2 A u.].$Xd.2 : , a a a a a ; = # ; p p p p a a a a a a ",
"p p # = p p p p p p p p a p p p p p p p p p % 7 B 7 K ,.2.1.7.U 2  .E.].s.B - , p p p p p p p ; . > p p p p p p p p p p ",
"p p # ; p p p p p p p p p p p p p p p p p a a $ r Z 1 N <.8.7.5.<.K. Xa.2 % , p p p p p p p a = # p p p p p p p p p p p ",
"p p . ; p p p p p p p p p p p p p p p p p p p p $ B H 7 L 9.2.5.M..XN.8 $ > a p p p p p p p a = # p p p p p p p p p p p ",
"p p . ; p p p p p p p p p p p p p p p p p p p p > % H N N ! :.f. X!.Z + , , , p p p p p p p a ; # p p p p p p p p p p p ",
"p ; # ; p a a a a a a a a a p a a a a p a a p p = # 5 L N B :.W.).q.O , a , a a a a a a a a > = # ; > p p p p p p p p p ",
"; # # # = ; > ; p ; ; ; > > > p ; > > > ; > p = & # + H r I 6.M.~.^ < : > > > > p ; > ; > ; = # # & ; > > p ; > p p ; p ",
"# # . # # # # . . . . . . # . . # # . # # # . # # # + N 7 D 2.N.~.^ < . . . . . # # # # . . # # # # # # # # # # # # # # ",
"p p > p p p p p p p p p > , * . & = p p p p ; p > > % N G 8 Z t.f.L + > * & # & ; p > p p p p a p p p p > > > > p ; p p ",
"a p a a p p a p a a p p a a > . : ; a a a a a a a a : % L G r ^ ^ 9 : p p & . ; p a p a a p p a p p a a p a a a p p p p ",
"p p p p p p p p p p p p , a > . a a p p p p p p a a a : 9 e 6 e q p p p a ; # p p p p p p p p p p p p p p p p p p p p p ",
"p p p p p p p p p p p p p a > . > a p p p p p p p p p p p p p p p p p p a ; . p p p p p p p p p p p p p p p p p p p p a ",
"p p p p p p p p p p p p p a ; . > a p p p p p p p p p p p p p p p p p p a ; . p a p p p p p p p p p p p p p p p p p p a ",
"p p p p p p p p p p p p p p > . > > a p p a p p a p p a p p p p p p a a p = # > p p p p p p p p p p p p p p p p p p p p ",
"a a a p a a a a p p a a a a > . & ; a a a a a a a a a a a a a a a a a a ; & . & p a p p a a a p a a a a a a a a p p p a ",
"& & & & & & & & & & & & = & & # # & & & = = & & & & & & & & & & & & & & & # . & # = & & & & & & & & & & & & & & & & & & ",
"# # # & # # # # # # # # # # # = & # # # # # # # # & # # # # # # # # # # & # & # & # # # # # & # & # # # # # # # # & & # ",
"a a a a a a ; * # & p p a a p p a a a a a a a a a a a a a ; = # ; > p d a a a a a a a a a a a a a a a p = & # ; p p p a ",
"p p p p p p p p . p p p p p p p p p p p p p p p p p p p a a ; # p p p > , , a > p p p p p p p p p p p p p # & p p p p p ",
"p p p p p p a ; # p a p p p p p p p p p p p p p p p p p p a ; # f > a , a , > a p p p p p p p p p p p p p & & a p p p p ",
"p p p p p p a ; # p p p p p p p p p p p p p p p p p p p p a ; # p > > a , , a , p p p p p p p p p p p p p # & a p p p p ",
"p p p p p p a p . p p p p p p p p p p p p p p > a p p p a a ; # d p p p p p p p p p p p p p p p p p p p p & # p p p p p ",
"a a a a p p p & . = p p p p p p p p a a a , a a a a a p a ; = # ; p p p a a a a a a a a a a a a a a a p ; & # p p p p p ",
"; p p ; p = * # # # ; p ; ; p p > ; p ; > > ; ; > ; > > ; = # # & ; > > ; ; > > p ; p ; ; ; p ; p ; p ; = & # & ; ; p p ",
". # . . . . # # # # . . . . . # # # . # . . # . # . . # # # # # # . . . . . . . . . # # . . . #   . # # # # # # # . . # "
};
