/* XPM */
static char *result[] = {
/* columns rows colors chars-per-pixel */
"60 60 19 1 ",
"  c #0C0E0F",
". c #0D0E12",
"X c #0F1115",
"o c #101317",
"O c #12151A",
"+ c #151A1E",
"@ c #181C1F",
"# c #171523",
"$ c #181525",
"% c #171B20",
"& c #181C22",
"* c #191728",
"= c #1B1C2C",
"- c #1D1E32",
"; c #1D222F",
": c #1E2134",
"> c #21263B",
", c #24283F",
"< c #252A43",
/* pixels */
"OOX..oO+OOOOO++OOoOOOOOooX  XO+O++OOOO+O++O++++oX..o+++oO+++",
"&+OX.O+%%%%%%%%%;O;@+O@;@oXXO+O;%%%%%%%%++++%%++O..++%%%%%++",
"%%+XX+%%%%%%%%%%@@+++;@@@+Xo+@+@%%%%%%%%&+++%%@++XX+%%%%%%%%",
"%%+oX+%%%%%%%%%%@@++@@@@@+Xo+O;+%%%%%%%%+&@+%%@++.++%%%%%%%%",
"%%%o.@%%%%%%%%%%@+@@+;++++Xo@;O+%%%%%%%%&++@&+%%+Xo+%%%%%%%%",
"%%%o.+%%%%%%%%%%O;@@+O++++.X++@@@@%%%%%@+&@++&+++.o+%%%%%%%%",
"%%o..O+%%%%%%%%%+@;@@@@;+o Xo;+@++@+%%++&+++&%++o.X+%%%%++%%",
"oo....ooOOOOOoOOooXXoooooo  XoooOOOOOOOO+O+o+OOo...Xoo+oOOOO",
"X....X.XX.XXXXX.XXX  XXoX.XXXo.oXXXXXXXX X ..XXXXX.XoooXXoXX",
"%%%%++%%%%%%+%%%@Oo  o+++++++++++%+%%+++OXXXO+++++++++++++++",
"%%%%%%%%%%%%%%%%++OXo+++%%%%%%%%%%%%%%%%+o.o+%%%%%+%%%%%%%%%",
"%%%%%%%%%%%%%%%%++@Xo@%%%%%%%%%%%%%%%%%%++.O%%%%%%%%%%%%%%%%",
"%%%%%%%%%%%%%%%%@@+oo%%%%%%%%%%%%%%%@@@++OXO%%%%%%&+&%%&%%%%",
"%%%%%%%%%%%%%%%%@@+Xo+%%%%%%%%%%%%%%%@@@@+ O%%%%%%&+%%%%%%%%",
"%%%%%%%%%%%%%%%%++O.o++%%%%%%%%%%%%%%%+@+oXo++%+%&%&%%%%%%%%",
"%%%O%%++++++%+++++o Xo++++%+%+++++++%%O@+X XO++#++++++++++++",
".XXX......X.XX...X.. ...X.X..X.......o....  ...........X..XX",
"oooooXOOOXX...X#OO#OOXooXooOooooOO...XoOO##O#OOXOXOOoOooX...",
"%%%%%%%%#%+O.O##*#######%%%%%%%%+OO.OO+#########%%%%%%%+Oo.o",
"%%%%%%%%%%+#######*#####%%%%%%%%#+OX##*##*#######%%%%%%%%o +",
"%%%%%%%%%%####-:-::>-####%%%%%%%%%OO###*-:>---#*##%%%%%%%O.+",
"%%%%%%%%%&###+:<<<<<>#**#%%%%%%%%++####:<<<<<<#*###%%%%%%O.+",
"%%%%%%%%%##:<<<<<<<<<<,>#&%%%%%%%#O*:,<<<<<<<<<<,*%%%%%%+O.O",
"%%%%%%%%%%#><<<<<<<<<<<,#&%%%%%%+OXO:<<<<<<<<<<<<#%%%%%+Oo.o",
"oOoOOOOOOoo:<<<<<<<<<<<,OOOOOOOOoO..=<<<<<<<<<<<,OOOOOXOX  X",
"...X.......oOO;<<<<<:OOO............XOo&<<<<<>OOOX......X X ",
"+++++++++++++o=::,:,:O++O+++++O%+++++o.+:,,:::++++++++#+o++o",
"%%%%+&++%%%%++O ++%%%%%%%%%%%%%%%%%%+o.+%&%%&&%%%%%%%%%%;+@O",
"+&&+%%%%%%%%%%+.+++%%%%%%%%%%%%%%%%%+X +&%%%%%%%%%%%%%%%@@+@",
"&+&%%%%%%%%%%+o.++%%%%%%%%%%%%%%%%%%++.+%%%%%%%%%%%%%%%%+@;O",
"%%%%%%%%%%%%%%+ +%%%%%%%%%%%%+%%%%@+&+.+%%%%%%%%%%%+%%%%O+@@",
"%%%%%%%%%%%%++O.++%%%%%%%%%#%###%%+++O +%%%%%%%%%%%%%%%%;+@+",
"++++++++++++++. oO+++++++%######$%#O%o.XOO%++++++%O+++++++OO",
"XX.X....XXX...  .....X.X#####**#$$##O.  .X..X..XXXXX.....X..",
"X...XOooooooXOoOoXXooXXO#*#-:-::-*#*OOXXoXoXooX...XoooooXooo",
"+O.XO++%+++%+@++%%%%+;+####,<<<<<=*#*#%%%@%%%%OX.OO%%%+%;%%%",
"+O.o+&%%%%+%%%%%%%%%%%#*<,,<<<<<<<<,-%%%%%%%%%Oo.O%%%%%%O+@+",
"++.O%%%%%%@%%%%%%%%%%++#<<<<<<<<<<<<-%%%%%%%%%%O.+%%%%%%+@O;",
"+OXO%%%%%%%%%%%%%%%%%%%;<<<<<<<<<<<,-%%%%%%%%%%o.+%%%%%%;@@+",
"%+.O%%%%%%%%%%%%%%%%%%+%*O=<<<<<<;==&%%%%%%%%%%O.++%%%%%O++@",
"+X.X++%%%%+%%+++#++%%%#+O.O:<::,>=%%%%%%%%%%%%Oo.OO&%%%%;@;%",
"OX.XXO+O++o+++++#OOOO+OO.XXOO++O++O+OOO#+OO#OOoX.XoO+++OXOXO",
"X..XXX.. .....XoX#X#O........... .......O#oo#o...XX.....  X.",
"+++++O+++++++++#$$*##++O+++++++%+++OOo.X$$$$$$%%%O+++++O++O+",
"+%%%%%%%%%######**#*####%%%%%%%%@@%%###$$***$$$$#%%%@@@@@;O@",
"%%%%%%%%%%####=:-----#*#%%%%%%%%+@%%$$$*------#$##%%@+@O@%@+",
"%%%%%%%%%%*###:<<<<<:####%%%%%%%%%%$$$#-<<<<<>####+@+;+;@@+@",
"%%%%%%%%%%#:,,<<<<<<<,,,##%%%%%%%%%$-,><<<<<<<>>,%%+@O@+@+O;",
"%%%%%%%%%%#><<<<<<<<<<<<#%%%%%%%%%%#-<<<<<<<<<<<<%%%%%%%%%%%",
";+%+%%%%+++><<<<<<<<<<<,%%%%%+++%O%%:<<<<<<<<<<<<%+#%%%%%%%%",
" XXoXoXooooO++:<<<<<>+++XXXXXXoXooXXoOO=<<<<<,%%OO.OXXXXXXXo",
".XX.X......X.X=:,,:,=Xo.XXXXX.....XXXXX&:<::<:XXO..... .XX.X",
"%+%+++OX.o+%%+%%+%+++++%+%+%+OX.OO++%%+%%@+%%%O@%%%OOXXoO%%%",
"%%%%%%+O.O+%%%%%%%%%+%%%%%%%++OXO%%%%%%%%%%%%%%%%%%+OXX%%%%%",
"%%%%%%%O.O%%%%%%%%%%%%%%%%%%+%OX%%%%%%%%%%%%%%%%%%%%%XX%%%%%",
"%%%%%%%O.+%%%%%%%%%%%%%%%%%%%%oX%%%%%%%%%%%%%%%%%%%%%X.%%%%%",
"%%%%%%%O.O%%%%%%%%%%+%%%%%%%%+OX%%%%%%%%%%%%%%%%%%%%#XX%%%%%",
"%%%%%+OO.O+%%%%%%%%%++%%%%%%%OXX+O%%%%%%%%%%@@%%%%%%o.XO%%%%",
"OO++OOXX.XoOOO+OOO+OO+OOOO++OXX.XOO+OOOOO+OO+oOOOOOOX..XOOOO",
".    ....... .  .... . ..   ...... . ..   .X   ..   ...... ."
};
