/* XPM */
static char *result[] = {
/* columns rows colors chars-per-pixel */
"60 60 67 1 ",
"  c #010000",
". c #0C0304",
"X c #070709",
"o c #0B0C0E",
"O c #130507",
"+ c #170508",
"@ c #1D070A",
"# c #110D0F",
"$ c #1C0A0C",
"% c #0C0D11",
"& c #150D11",
"* c #1E0E11",
"= c #0E1115",
"- c #101317",
"; c #1C1215",
": c #12151A",
"> c #1C161A",
", c #15191D",
"< c #1A191D",
"1 c #23090D",
"2 c #2B0A0F",
"3 c #250D12",
"4 c #2B0D11",
"5 c #340D12",
"6 c #3A0F14",
"7 c #241115",
"8 c #2B1115",
"9 c #211519",
"0 c #3E1016",
"q c #371218",
"w c #3C1318",
"e c #171B20",
"r c #181C21",
"t c #421117",
"y c #441218",
"u c #4A141A",
"i c #4E181E",
"p c #53161D",
"a c #58171F",
"s c #59181F",
"d c #5C1920",
"f c #631B23",
"g c #6C1D26",
"h c #711F27",
"j c #731F28",
"k c #732027",
"l c #752029",
"z c #7A222B",
"x c #6D6D6D",
"c c #83242E",
"v c #872630",
"b c #8A2631",
"n c #8E2832",
"m c #932934",
"M c #992B36",
"N c #9C2C38",
"B c gray53",
"V c #8D8E8D",
"C c #928A8B",
"Z c gray63",
"A c #B2AAAC",
"S c #AFB0AF",
"D c gray71",
"F c #C8C8C8",
"G c #ECE4E6",
"H c #EAECEB",
"J c white",
/* pixels */
":::,:::,:%%=:e:::::,::,:,:,::,:=%%=:,:,,:,::::,:,::,::==%=::",
"rrrrrrrr:=%:eeeerrrreeerrrrerre,==:eeeeeeeeerererrerrr:==:er",
",,reeeeer:%reeeeeereeeee,eeeeeer=%eeeeeeeeeeeeee,eeeeee==ree",
"rrreeeeer=%reeeeeeeeeeeereeeeeer:%eeeeeeeeeeeeeereeeer,o=eee",
"eeereeeer:%reeeeeeeeeeeeeeeeeeer:%eerrrreeeeeeeeeeeeeer==ree",
"eee,,reer=%eeeeeeeeeeeeeeee,eeer=%,e,r,,eeeeeeeeeeeeee,%=ree",
"rrerrerre%%:eeerrrreeeeerrererr:=%:,rr,reeeeeeeerreer,:%=:er",
"::::::::=%%%=::::::::::::322722722343:-,:,::::::::::::=o%%::",
"%%%%%%%%%%=%%%%%oo%%%%%%&uyuyuyuuuyu5&oo%%%%%%%%%%%%%%%=%=%%",
"rrrrrrrrrrrrrrr:-o=:rrr30MMMMMMmmmmjf4&%%=errrrrrrrrrerreere",
"r,rreeeeeereeeee,o,,r>;ifggggggkmmmvjaq*%,eeeeeeeer<eeeeeeee",
"rrr,eeeeeeeeeeer,o,ee95bn522252pMmmmmjp4&eeeeeeeeeeeeeeeeeee",
"e,eeeeeeeeeeeeer:o,,3izdy......1pzMmmbld87eeeeeeeeeeeeeeeeee",
"ereeeeeeeeeeeeer,o<>6gm61      .1fnmmMvjy5eeeeeeeeeeeeeeeeee",
"eeeeeeeeeeeeeeee:o2yMf5.         1wvmmvh04eeeeeeeeeeeeeeeeee",
"eeeereeeeeeeere:=o2iNd2.         16vmMvjdy>>rrrreeererrrrrer",
"%%%%%%%%%%%%%%%%oo2uMf2          @6bmmcjzh53%%%%==%%%%%%%%%=",
"=%%---------=-----4uMf2CV    oZx 16bmclllh53:%%%%===-=======",
":%=:erereerrerrer<3uNf2GH    :JD @6bnkkjlg58e:=%-errrrrrrrrr",
"e%:reeeeeeeeeeeer<4uNf2GH    <JD 16bnld6gh58ere%eeeerreerree",
"e%-eeeeeeeeeeeeer,4ums2AS    -FB @6bmzp2gg53rr:%eeeeeeeeeeee",
"e%:reeeeeeeeeeeerr4yzp5          @5nmlp2gkq4er:%:eeeeeeeeeee",
"e%:eeeeeeeeeeeee,,4yzp5         @ugcckp5ii;>ee:%ereeeeeeeeee",
"=%%errrerrrereeerr4yzp5.       O5lNlllp444eere-%=errrrrrrrrr",
"%%%=:--:-::-:------*6dg6@     16glclgy3&=::::==%%==::=::=-:=",
"%%%%%%%%ooo%%%%%%%%%1uju6  ...6pzjggs2o%%oooooo%%%%%%%o%%%%%",
":eeeeeeeeeeeeeeeeer:-$5fg42245hjlu553,er,e:=o=-reeeeeeeeeeee",
"eeeeeeeeeeeeeeeerrr,;4pjzdddddczjsupw9,,ee,,o,eeeeeeeeeerree",
"eeeeeeeeeeeeeeeeeee>5pzmmMmmMmmbklllg5;eeere%:eeee,eeeeeeeee",
"eeeeeeeeeeeeeeeeee7qfznmmmmmmmmmbnnncfw8,re,%,eeeeeeeeeeeeee",
"eeeeeeeeeeeeeeeeee4yjbmmmmmmmmmmmmmmnlp5<er,%:eeeeeeeeeeeeee",
"eeeeeeeeeeeeeeeeee4yjvmmmmmmnmmmmmmmnlp5<ee,%:eeeeeeeeeeeeee",
"-eeerrreeerrerrr,,8uzbmmmmmmmmmmmmmmnzd4rr,=%-:,eeeeerrrrrrr",
"%%%%%%%%%%%%%%%%%%2uMmmmnmmmmmmnmmnmmMf4&%%%oo%%%%%%%%%%%%==",
"=====:====%%%%==--2uMmnmmmmnmnmmmmmmmmkd3&------=-===--%%%==",
"rrrrrrrere:%=errr,4ummmmnmmmmmmmnmmmmmvly4rrrrrrrrrrrrr:=%=,",
"rreeeeeeeeeo:eee78fzmmmmmmvlnmmnmmnmmmvky8eer,r,eeeeeeee:%:r",
"eeeeeeeeeeeo:ree35hzmmmmmmckbmmmmmmmmmvkt8ee,r,reeeeeeer:%ee",
"eeeeeeeeeeeo:ree76gcmmmmmmblnmmmmnmmmmvkt4eeeer,eeeeeeee:%:r",
"eeeeeeeeeeeo:eee76gzcnmmmvkplbmmmmmmmmvkt4eeeerreeeeeeee:%ee",
"eeeererrre:o=eee76gljcmmmja2fzmmmmmmmMclt4rrr,rrrrrrrre,=%-e",
",,,:e:e:e==%==:e96gjjvmczzs2fzzcMclmnzzkgs8;,,,,::,:,,,==%=:",
"%%%oo%ooo%%%%%%o15gljcmzjjp2fjjcmclmblzklh52o%oo%o%%%%%%%%%%",
"e,,e,eeeeeeeeeee75jlzzzjgt1 2yjjlcmllllzlh57o,,,ee,eee,,,eee",
"eeeerrrrreeeeeee76ggsgllg5@ @2dflcvlllgskh53o,<,ererereerrrr",
"eeeeeeeeeeeeeeee76lg2azlg61   2ullllllp2gk58o,rreeeeeeeeeeee",
"eeeeeeeeeeeeeeee<;tpdglptO.   4uljlppzp2yy><o,rreeeeeeeeeeee",
"reeeeeeeeeeeeeeer,3ylljt1     5uzjj5wzp528r,o,r,eeeeeeeeeeee",
"reeeeeeeeeeeeeeeeeee00t62 Xe::56t60,>w659rr,%:<,rrr,rr,reeee",
"rreerrrreeerrreerer:31133X=rre13447e<434rr:-o,rrrrrrrrrrrerr",
"-==-=%--========-==%%X %=====% X=%======-=%%o=%-============",
"=%%%%%%%%=%===%%=%%=%%XXX%%%%%XXXo%%%%%%%%%%-#%%=%%%%%=%=%%%",
"rrre:==-errrrreerrrrrrrX rr:%=:- =rrrrrrrrrrrrrrr,===:rreeer",
"reeee%%eeeeeeeeeeeeer<eeeerr%-reeeeerrereeeeeeeeee,o:rrreeee",
"eeeer%=reeeeeeeeee,eeeeeeerr=:reeeeeeeeeeeeeeeeeer,%:r,reeee",
"eerrr=%eeeeeeeeeeeeeeeeeerrr%-reeeeeeeeeeeeeeeeeee,%:rr,eeee",
"eeeer%=eeeeeeeeeeeeeeeeeeeer=-reeeeeeeeeeeeeeeeeer,=:rreeeee",
"reree%=:erreeeeerrrrrerrrre:%-eeerrrrerrrrrrrerrr,:o=,rrrrrr",
",:e:-%%%::ee,:,:,:,,,,:,,::-%%=:e:e,,,::,e,,:,,,,:=o==:ee:ee",
"%%%%%%%%%%X%oo%%o%oo%X%%%%%%%%%%%oo%oooooXoo%%X%ooo=%ooo%%X%"
};
