/* XPM */
static char *result[] = {
/* columns rows colors chars-per-pixel */
"60 60 147 2 ",
"   c #14171C",
".  c #12161A",
"X  c #0E1115",
"o  c #0D0E13",
"O  c #0D0E12",
"+  c #101217",
"@  c #13161B",
"#  c #13171B",
"$  c #13171A",
"%  c #131819",
"&  c #14171B",
"*  c #0E1015",
"=  c #0C0D11",
"-  c #0F1216",
";  c #14181D",
":  c #12151A",
">  c #0F1115",
",  c #0D0F13",
"<  c #101318",
"1  c #181C21",
"2  c #161A1F",
"3  c #0E1014",
"4  c #13161A",
"5  c #171C20",
"6  c #181D21",
"7  c #171B20",
"8  c #151A1E",
"9  c #121519",
"0  c #0B0C11",
"q  c #14181C",
"w  c #181D22",
"e  c #0C0E12",
"r  c #171A20",
"t  c #111418",
"y  c #191E22",
"u  c #0F1116",
"i  c #0C0D12",
"p  c #111317",
"a  c #161B1F",
"s  c #171A1F",
"d  c #101317",
"f  c #0D0F14",
"g  c #111419",
"h  c #171C21",
"j  c #0E0F14",
"k  c #0B0C10",
"l  c #111318",
"z  c #121419",
"x  c #121619",
"c  c #121618",
"v  c #121517",
"b  c #121518",
"n  c #131619",
"m  c #0B0B10",
"M  c #0B0C0F",
"N  c #0B0E0E",
"B  c #0C0E10",
"V  c #0E0F13",
"C  c #0C0F10",
"Z  c #0C0E0F",
"A  c #0B0D0E",
"S  c #0B0D10",
"D  c #0B0D11",
"F  c #15191D",
"G  c #0E1111",
"H  c #121617",
"J  c #171D1E",
"K  c #141A1B",
"L  c #0F1213",
"P  c #0C0F0F",
"I  c #0F1215",
"U  c #161A1E",
"Y  c #0C0E11",
"T  c #0F1313",
"R  c #161C1D",
"E  c #171C1E",
"W  c #141819",
"Q  c #151A1D",
"!  c #0A0B0F",
"~  c #15191E",
"^  c #0C0D10",
"/  c #101315",
"(  c #171C1F",
")  c #171D1F",
"_  c #131719",
"`  c #0E1011",
"'  c #131718",
"]  c #181D1F",
"[  c #181E21",
"{  c #151A1B",
"}  c #0E1114",
"|  c #0A0C0E",
" . c #0C0C11",
".. c #0B0D0F",
"X. c #0A0C0D",
"o. c #111417",
"O. c #111416",
"+. c #101416",
"@. c #101316",
"#. c #111516",
"$. c #181C22",
"%. c #15181D",
"&. c #171B1F",
"*. c #16191E",
"=. c #13171C",
"-. c #191D22",
";. c #121418",
":. c #0E1013",
">. c #0C0E0E",
",. c #0B0D0D",
"<. c #0C0D0F",
"1. c #0E1213",
"2. c #0D0F10",
"3. c #181D20",
"4. c #0F1314",
"5. c #12151B",
"6. c #161B1C",
"7. c #191E21",
"8. c #131617",
"9. c #13181A",
"0. c #15181C",
"q. c #15191C",
"w. c #101415",
"e. c #0A0C0C",
"r. c #0F1416",
"t. c #191E23",
"y. c #14191C",
"u. c #151A1C",
"i. c #0B0B0F",
"p. c #0B0E0F",
"a. c #0A0B10",
"s. c #161A1D",
"d. c #171C1D",
"f. c #0B0C0E",
"g. c #101116",
"h. c #0E1112",
"j. c #181E20",
"k. c #14191B",
"l. c #14191A",
"z. c #171B1E",
"x. c #191F20",
"c. c #0E1012",
"v. c #0D0F11",
"b. c #0F1113",
"n. c #101216",
"m. c #0A0B0E",
"M. c white",
/* pixels */
"  . X o O + @ @ # # # # $ % % % $ # # # # # # & . * = o - @ & # # # # # $ % % % # # # # # # ; : > = , <   # # # # % % % ",
"1 2 : 3 O 4 5 1 1 1 1 1 1 1 1 1 1 1 1 1 1 1 1 6 7 @ O * @ 1 6 1 1 1 1 1 1 1 1 1 1 1 1 1 1 1 6 8 9 0 > q w 1 1 1 1 1 1 1 ",
"7 7 6 X O 6 5 7 7 7 7 7 7 7 7 7 7 7 7 7 7 7 7 7 5 6 e + w 7 7 7 7 7 7 7 7 7 7 7 7 7 7 7 7 7 r 5 1 0 t y 7 7 7 7 7 7 7 7 ",
"7 7 1 u O 5 7 7 7 7 7 7 7 7 7 7 7 7 7 7 7 7 7 7 7 7 i + y 7 7 7 7 7 7 7 7 7 7 7 7 7 7 7 7 7 7 5 1 0 p 6 7 7 7 7 7 7 7 7 ",
"7 7 1 u O 1 7 7 7 7 7 7 7 7 7 7 7 7 7 7 7 7 7 7 7 5 i + y 7 7 7 7 7 7 7 7 7 7 7 7 7 7 7 7 7 7 5 1 0 p w 7 7 7 7 7 7 7 7 ",
"7 7 1 > O 7 7 7 7 7 7 7 7 7 7 7 7 7 7 7 7 7 7 7 7 a i + 6 2 7 7 7 7 7 7 7 7 7 7 7 7 7 7 7 7 s 7 5 0 d 1 7 7 7 7 7 7 7 7 ",
"w 5 : f 0 9 7 6 1 1 1 1 1 1 1 1 1 1 1 1 1 1 1 w 7 g = > @ h 6 1 1 1 1 1 1 1 1 1 1 1 1 1 1 1 1 8 . 0 3 ; w 1 1 1 1 1 1 1 ",
"9 t j = k f l 9 z 9 9 9 9 9 9 9 9 : : x x c v 9 l 3 k = * t 9 z 9 9 9 9 9 9 z b c x n 4 9 z 9 + f m O u 9 9 9 9 9 9 9 9 ",
"e O o o , o O O O O O O O O O O e e i M N N B O O o V , o O O O O O O O O O O O C Z A S D e O O o , , O O O O O O O O O ",
"1 1 5 5 5 5 1 1 1 1 1 1 1 1 1 5 6 F d B G H J 1 h 5 5 5 5 1 1 1 1 1 1 1 1 1 5 6 K L P I . 1 1 h 5 5 5 h 1 1 1 1 1 1 1 1 ",
"7 7 7 7 7 7 7 7 7 7 7 7 7 7 7 7 7 5 U Y T R E 7 7 7 7 7 7 7 7 7 7 7 7 7 7 7 7 5 R W A 4 2 7 7 7 7 7 7 7 7 7 7 7 7 7 7 7 ",
"7 7 7 7 7 7 7 7 7 7 7 7 7 7 7 7 7 5 1 i t y 7 7 7 7 7 7 7 7 7 7 7 7 7 7 7 7 7 7 1 Q ! q w 7 7 7 7 7 7 7 7 7 7 7 7 7 7 7 ",
"7 7 7 7 7 7 7 7 7 7 7 7 7 7 7 7 7 7 7 i d 1 7 7 7 7 7 7 7 7 7 7 7 7 7 7 7 7 7 7 h ; m   1 7 7 7 7 7 7 7 7 7 7 7 7 7 7 7 ",
"7 7 7 7 7 7 7 7 7 7 7 7 7 7 7 7 7 7 6 e l w 7 7 7 7 7 7 7 7 7 7 7 7 7 7 7 7 7 7 1 ~ ! ; w 7 7 7 7 7 7 7 7 7 7 7 7 7 7 7 ",
"7 7 7 7 7 7 7 7 7 7 7 7 7 7 7 7 7 2 ; ^ / ( ) 7 7 7 7 7 7 7 7 7 7 7 7 7 7 7 7 5 R _ A g 2 7 7 7 7 7 7 7 7 7 7 7 7 7 7 7 ",
"h h h h h h h h h h h h 5 h 1 h 1 F d ^ ` ' ] 6 5 h h h h h h h h 5 5 5 5 1 5 [ { T N } : 5 h h h h h h h h h 1 5 5 5 5 ",
"0 0 0 0 0 0 0 0 0 0 O , O O O i 0 0 0 | A N Z  .0 0 0 0 0 0 0 0 0 i o j e O = D ..A X.M k 0 0 0 0 0 0 0 0 0 0 = i O , i ",
"d d d d d d d d d + > , k e 3 + d d p o.O.+.@.d d d d d d d d d d 3 e i e > l @.+.O.#.o.d d d d d d d d d d d p 3 o = o ",
"6 6 6 6 6 6 6 6 6 y 2 l  .g q 6 6 1 1 1 $.$.w 6 6 6 6 6 6 6 6 6 w %.t e g %.w 1 $.$.1 1 1 6 6 6 6 6 6 6 6 6 6 1   * = . ",
"7 7 7 7 7 7 7 7 7 7 h F m   w 2 7 7 7 7 7 7 7 7 7 7 7 7 7 7 7 7 r 1 ; 0 &.7 7 7 7 7 7 7 7 7 7 7 7 7 7 7 7 7 7 7 w 4 = a ",
"7 7 7 7 7 7 7 7 7 7 7 *.m =.6 7 7 7 7 7 7 7 7 7 7 7 7 7 7 7 7 7 7 1   m 2 7 7 7 7 7 7 7 7 7 7 7 7 7 7 7 7 7 7 7 6 9 0 a ",
"7 7 7 7 7 7 7 7 7 7 7 *.m   6 7 7 7 7 7 7 7 7 7 7 7 7 7 7 7 7 7 7 1 q m a 7 7 7 7 7 7 7 7 7 7 7 7 7 7 7 7 7 7 7 6 9 0 a ",
"7 7 7 7 7 7 7 7 7 7 1 ~ m @ 1 7 7 7 7 7 7 7 7 7 7 7 7 7 7 7 7 7 7 7 # 0 2 7 7 7 7 7 7 7 7 7 7 7 7 7 7 7 7 7 7 s 1 9 0 2 ",
"1 1 1 1 1 1 1 1 1 w &.+ m + %.-.h 1 1 1 1 1 1 1 1 1 1 1 1 1 1 1 1 q d i t %.$.1 1 1 1 1 1 1 1 1 1 1 1 1 1 1 1 1 & > k t ",
"z z z z z z z z ;.9 + f k :.I x 9 z z ;.z z z z z z z z z z ;.;.z u , 0 :.o.n b 9 z ;.z z z z z z z z z z ;.z 9 - O  .> ",
"m m m m m m m m m m m 0 B P A >.k k m m m m m m m m m m m m m m m k 0  .^ Z ,.<.= 0 m m m m m m m m m m m m m m 0  .= e ",
"7 7 7 7 7 7 7 7 7 7 7 7 ( H 1.2.> : 5 7 7 7 7 7 7 7 7 7 7 7 7 7 7 7 7 a 3.H A 4.5.7 7 7 7 7 7 7 7 7 7 7 7 7 7 7 7 7 2 t ",
"5 5 5 5 5 5 5 5 5 5 5 7 5 6.' Z q 2 1 5 5 5 5 5 5 5 5 5 5 5 5 5 5 5 5 7 7.8.A 9.2 1 5 5 5 5 5 5 5 5 5 5 5 5 5 5 5 h 7 2 ",
"7 7 7 7 7 7 7 7 7 7 7 7 r 6 0.m 2 1 7 7 7 7 7 7 7 7 7 7 7 7 7 7 7 7 7 r 6 9  .U 1 7 7 7 7 7 7 7 7 7 7 7 7 7 7 7 7 7 7 6 ",
"7 7 7 7 7 7 7 7 7 7 7 7 7 1   m U 7 7 7 7 7 7 7 7 7 7 7 7 7 7 7 7 7 7 7 6 . 0 ~ 7 7 7 7 7 7 7 7 7 7 7 7 7 7 7 7 7 7 7 5 ",
"7 7 7 7 7 7 7 7 7 7 7 7 7 1 ; m 2 1 7 7 7 7 7 7 7 7 7 7 7 7 7 7 7 7 7 7 6 :  .*.1 7 7 7 7 7 7 7 7 7 7 7 7 7 7 7 7 7 7 1 ",
"7 7 7 7 7 7 7 7 7 7 7 7 3.E 9.^ F a 7 7 7 7 7 7 7 7 7 7 7 7 7 7 7 7 7 7 6 c ..q.7 5 7 7 7 7 7 7 7 7 7 7 7 7 7 7 7 7 7 7 ",
"5 5 7 5 7 5 5 5 5 5 5 5 3.W w.2.d   h 5 5 5 5 5 7 7 7 5 5 5 5 5 5 5 5 7 7.' A +.& 1 5 5 5 7 5 7 7 5 5 7 5 5 5 5 5 5 7 : ",
"e , o , e i = = = = = = ^ N A e.M 0 = = = = = O 3 * j e D = = = = = = = = A e.A 0 = = = = i o j o , o = = = = = = = = k ",
"- , ! o j l + u - - - u - r.+.+.@.- - - - - - * , = , > + u - - - - - u - r.+.@.- - - u + d f o k , > d - - - - - - - - ",
"a d = u 9 w -.1 6 6 6 6 $.$.$.$.$.6 6 6 6 6 6 q d e d %.y 1 6 6 6 6 6 6 $.$.$.$.6 6 6 1 w 1 . u i t %.y 6 6 6 6 6 6 6 6 ",
"1 q k : 5 5 7 7 7 7 7 7 7 7 7 7 7 7 7 7 7 7 7 1 q 0 ~ 7 7 7 7 7 7 7 7 7 7 7 7 7 7 7 7 7 s 2 5 g k U 7 7 7 7 7 7 7 7 7 7 ",
"1 *.k @ 1 7 7 7 7 7 7 7 7 7 7 7 7 7 7 7 7 7 7 1 F 0 U 1 7 7 7 7 7 7 7 7 7 7 7 7 7 7 7 7 7 7 6 z m &.1 7 7 7 7 7 7 7 7 7 ",
"1 ~ k @ 1 7 7 7 7 7 7 7 7 7 7 7 7 7 7 7 7 7 7 1 F  .*.h 7 7 7 7 7 7 7 7 7 7 7 7 7 7 7 7 7 7 1 z m &.1 7 7 7 7 7 7 7 7 7 ",
"1 ~ k # 1 7 7 7 7 7 7 7 7 7 7 7 7 7 7 7 7 7 r 1 F 0 U 1 7 7 7 7 7 7 7 7 7 7 7 7 7 7 7 7 7 s 6 9 m a 7 7 7 7 7 7 7 7 7 7 ",
"7 g = l   1 w 6 6 6 6 6 6 6 1 1 6 6 6 6 6 6 w ~ t e 9 U -.6 6 6 6 6 6 6 1 1 1 1 6 6 6 6 w 1 q +  .: ~ t.w 6 6 6 6 6 6 6 ",
"4 3 0 j d %.q q q q q q q y.q.Q %.q q q q q ; t 3 i * 9 F q q q q q q %.F u.q.q.F %.q q %.%.d f = u 9 F q q q q q q q q ",
"= i i e i = m m m m m m i.A p.N k m m m m m a.0 e O e 0 m m m m m m m 0 B A A Z  .= m m m 0 = O i i e k m m m m m m m m ",
"a a a a a a a a a a a a s.d.% f.g.4 &.a a a a 2 a a 2 2 a a a a a a &.a O.h.Z 4.4 5 a a a a a a a a a a a a a a a a a &.",
"1 5 1 h h h 1 1 1 1 1 1 5 j.k.f.& ~ 1 1 1 1 1 1 1 h 1 h 1 1 1 1 1 1 6 h F w.p._ *.1 h 1 1 h h 1 1 5 1 1 1 1 1 1 1 1 h w ",
"7 7 7 7 7 7 7 7 7 7 7 7 7 1 q m &.1 7 7 7 7 7 7 7 7 7 7 7 7 7 7 7 7 7 s w 4 k U 1 7 7 7 7 7 7 7 7 7 7 7 7 7 7 7 7 7 7 5 ",
"7 7 7 7 7 7 7 7 7 7 7 7 7 1 q m U 7 7 7 7 7 7 7 7 7 7 7 7 7 7 7 7 7 7 7 6 :  .~ 7 7 7 7 7 7 7 7 7 7 7 7 7 7 7 7 7 7 7 1 ",
"7 7 7 7 7 7 7 7 7 7 7 7 7 1 q m s 1 7 7 7 7 7 7 7 7 7 7 7 7 7 7 7 7 7 r -.4 0 U 1 7 7 7 7 7 7 7 7 7 7 7 7 7 7 7 7 7 7 1 ",
"7 7 7 7 7 7 7 7 7 7 7 7 &.] l.M F 2 7 7 7 7 7 7 7 7 7 7 7 7 7 7 7 7 5 7 z.O...y.a 7 7 7 7 7 7 7 7 7 7 7 7 7 7 7 7 7 7 h ",
"6 6 6 6 6 6 6 1 1 1 6 w 3.x.{ A d   w 6 6 6 6 6 6 6 6 6 6 1 1 1 1 1 y 1 x L Z w.  w 6 6 6 6 6 6 6 6 6 6 1 1 1 1 6 6 6 -.",
"* * * * * * * u - u X * 3 h.h.A e , * * * * * * * * * * * u u - u * * * c.Z A v., > * * * * * * * * * * u - u u * * * * ",
"o o o o o o e = k = O o O v.h.b.V , O o o o o o o o O o O = k k = O o o :.h.h.c.j , O o o o o o o O o O = k !  .O o o O ",
"6 6 6 6 6 6 # - i d F y 6 6 6 1 1 6 6 6 6 6 6 6 6 6 6 y 1 : > i g a w 1 1 6 1 1 1 6 6 6 6 6 6 6 6 6 -.&.g 3 j 9 7 w 6 6 ",
"7 7 7 7 7 7 5 . m ~ 1 7 7 7 7 7 7 7 7 7 7 7 7 7 7 7 7 7 7 1 l V 5 7 7 7 7 7 7 7 7 7 7 7 7 7 7 7 7 7 7 7 2 3 3 5 7 7 7 7 ",
"7 7 7 7 7 7 -.4 a.2 1 7 7 7 7 7 7 7 7 7 7 7 7 7 7 7 7 7 7 1 t j w 7 7 7 7 7 7 7 7 7 7 7 7 7 7 7 7 7 7 7 h j , -.7 7 7 7 ",
"7 7 7 7 7 7 w 4 a.U 5 7 7 7 7 7 7 7 7 7 7 7 7 7 7 7 7 7 7 1 l , 6 7 7 7 7 7 7 7 7 7 7 7 7 7 7 7 7 7 7 7 7 j , 6 7 7 7 7 ",
"7 7 7 7 7 7 -.@ a.a 6 7 7 7 7 7 7 7 7 7 7 7 7 7 7 7 7 7 7 w t j y 7 7 7 7 7 7 7 7 7 7 7 7 7 7 7 7 7 7 7 7 j V w 7 7 7 7 ",
"1 1 1 1 1 1 q + 0 9 U 1 1 1 1 1 1 1 1 1 1 1 1 1 1 1 1 1 1 q n.e @ 7 6 1 1 1 1 1 1 1 1 1 1 1 1 1 1 1 1 7 # j V q 7 1 1 1 ",
"F F F F F q d * = X : F F F F F F F F 0.0.0.0.F F F %.8 %.d 3 = - # F F F F F F F F F 0.0.0.0.F F F F # u o O + q F F F ",
"! ! ! ! ! ! k = o = 0 ! ! ! ! ! ! ! ! f.,.,.f.! ! ! ! i.0 0 = =  .m ! ! ! ! ! ! ! ! m f.,.,.m.! ! ! ! ! = i i 0 = ! ! ! "
};
