/* XPM */
static char *result[] = {
/* columns rows colors chars-per-pixel */
"60 60 155 2 ",
"   c #0C0E0F",
".  c #0D0E12",
"X  c #170F15",
"o  c #0F1115",
"O  c #111316",
"+  c #181116",
"@  c #12151A",
"#  c #1B151A",
"$  c #151A1E",
"%  c #1A1A1E",
"&  c #2A131A",
"*  c #27181C",
"=  c #35161B",
"-  c #37191F",
";  c #3A191F",
":  c #171523",
">  c #191525",
",  c #171B20",
"<  c #191B21",
"1  c #121228",
"2  c #191728",
"3  c #1B1D2C",
"4  c #1E1F32",
"5  c #231626",
"6  c #2C1727",
"7  c #211C21",
"8  c #2D1A24",
"9  c #2E1B2B",
"0  c #321D24",
"q  c #3C1E25",
"w  c #381428",
"e  c #3A1928",
"r  c #1C212F",
"t  c #1E2233",
"y  c #202537",
"u  c #22253C",
"i  c #23283F",
"p  c #3E2535",
"a  c #42181D",
"s  c #6D341E",
"d  c #451C24",
"f  c #481E26",
"g  c #421629",
"h  c #451D29",
"j  c #521B24",
"k  c #551E2B",
"l  c #641E27",
"z  c #681F29",
"x  c #442126",
"c  c #4B2C22",
"v  c #4B2028",
"b  c #532029",
"n  c #5A212A",
"m  c #543420",
"M  c #4D2738",
"N  c #57283A",
"B  c #5C283B",
"V  c #49373D",
"C  c #5B3E3A",
"Z  c #662E21",
"A  c #63222C",
"S  c #6A222D",
"D  c #73232E",
"F  c #7B232F",
"G  c #6D3525",
"H  c #6F3823",
"J  c #7F4521",
"K  c #674238",
"L  c #6C4338",
"P  c #734736",
"I  c #7B4935",
"U  c #1F2845",
"Y  c #252A43",
"T  c #292D44",
"R  c #2D3144",
"E  c #333744",
"W  c #363945",
"Q  c #444547",
"!  c #68644C",
"~  c #7C794F",
"^  c #85232F",
"/  c #863B26",
"(  c #862531",
")  c #8B2531",
"_  c #8A2837",
"`  c #942633",
"'  c #9C2734",
"]  c #932B36",
"[  c #9E2835",
"{  c #B53C2F",
"}  c #B83F2F",
"|  c #A02735",
" . c #A22B33",
".. c #A73032",
"X. c #AB3431",
"o. c #B03730",
"O. c #B13830",
"+. c #8E4225",
"@. c #9C562F",
"#. c #894E33",
"$. c #8B5033",
"%. c #905334",
"&. c #9B5630",
"*. c #BE452D",
"=. c #A15320",
"-. c #B75C2A",
";. c #99643A",
":. c #C54B2C",
">. c #CA4E2B",
",. c #CF5329",
"<. c #D65B27",
"1. c #DB5E27",
"2. c #D15529",
"3. c #D65928",
"4. c #D56725",
"5. c #DF6126",
"6. c #E26325",
"7. c #EA6A24",
"8. c #ED7424",
"9. c #F57421",
"0. c #F87721",
"q. c #F77B25",
"w. c #F97821",
"e. c #AC7E42",
"r. c #DE963D",
"t. c #F78329",
"y. c #F7882C",
"u. c #F89633",
"i. c #F99935",
"p. c #E9A03F",
"a. c #F9A43C",
"s. c #BB9045",
"d. c #B69B49",
"f. c #C38C40",
"g. c #DCA846",
"h. c #D5B64E",
"j. c #C2B658",
"k. c #E8A341",
"l. c #F2AC42",
"z. c #FAAC40",
"x. c #FAB243",
"c. c #F7BB49",
"v. c #FABC49",
"b. c #D3C65B",
"n. c #DDD05D",
"m. c #FBC44D",
"M. c #FBCB51",
"N. c #E5D85E",
"B. c #EBDB5F",
"V. c #F3D95B",
"C. c #F7E15F",
"Z. c #FDE45F",
"A. c #F3E460",
"S. c #FCE560",
"D. c #FEEB63",
/* pixels */
"@ @ o . . O @ @ $ @ $ @ @ @ $ $ @ $ O $ $ @ @ $ @ o o o o @ $ @ $ @ $ @ @ @ @ $ @ $ @ $ @ $ @ @ O . . @ @ : $ @ $ @ @ @ ",
", $ @ o . @ , , , , $ , $ r , < n q $ $ , , , , $ @ o o o $ , , , , $ , , , , , $ n x $ , , , $ O . O @ , , , , , , , , ",
", , $ o o $ , , , , , , $ % , 7 ` n , , , , , % , $ o o $ , , , , , , , , , , , , ( D , , , , % , . O , , , , , , , , , ",
", , , O o $ , , , , , , $ $ , 7 ` ` ] 7 , , , $ , $   O r , , , , , , , , , , , , ) ' ) q , , , , . O , , , , , , , , , ",
", , , O o $ , , , , , , , , , < ` [ ' n x $ $ $ , $ o o $ $ $ , , , , , , , , , , ) [ [ S x $ , $ o @ , , , , , , , , , ",
", , , o . $ , , , , , , , , % 7 ` [ [ ' D $ r $ $ @ o o $ $ , , , , , , , , , , , ) [ [ [ ( % % $ . o $ , , , , , , , , ",
", $ O . . @ $ , $ $ , % , , , 7 ` [ [ [ ` ^ 0 $ $ @ o o @ $ , , $ % , $ , , % $ , ) [ [ [ ' ^ f @ . o @ , $ $ , , , , , ",
"@ O . . . . O @ @ @ @ @ @ @ @ # D ) [ [ [ ' ; @ O o     o @ @ @ @ @ @ @ @ @ @ O @ S ^ [ [ [ ' f .   . o @ @ @ @ @ @ o @ ",
"o . . o . . o o o o o o o o o o o j [ [ ' ' - o o o o o o o o o o o o o o o o o o   = [ [ [ [ j . . o o o o o o o o o o ",
", , $ $ $ $ , , , $ $ , , $ $ $ $ n [ [ [ ' q $ $ $ $ $ $ $ $ $ $ $ $ , $ $ $ % @ O = [ [ [ [ b , $ $ $ $ $ , $ , $ , , ",
", , , , , , , , , , , , , 7 % , $ n ` ' [ ' q , $ , , , , , $ , , , , , , % 7 % % O = ) ' ' ' b , , , , , , , , , , , , ",
", , , , , , , , , , , , 0 ' b , , , $ ^ ' [ q , , , , , , , , , , , , , , r ' Z , $ o @ D ' [ b , , , , , , , , , , , , ",
", , , , , , , , , , , , 8 ] b , , , $ ^ X.2.c , , , , , , , , , , , , , % 7 [ A , $   @ D ..,.G , , , , , , , , , , , , ",
", , , , , , , , , , , , 0 ' b % , , $ ^ O.9.m , , , , , , , , , , , , , , % [ S % $   @ D X.0.J , , , , , , , , , , , , ",
", , , , , , , , , , , , 0 [ ' ` 7 $ @ ( *.9.m , , , , , , , , , , , , , , 7 ' ' ' *   @ S X.9.+., , , , , , , , , , , $ ",
", $ , $ $ $ $ $ $ $ $ $ 8 [ [ ] b v a ) X.<.c $ $ $ , $ $ , x q $ $ $ $ $ 7 ' [ ' b a a F ..<.G $ , $ $ $ $ $ $ $ $ $ $ ",
"o o o o . . o . . . . o & [ [ [ ' ' ' [ ' [ = . . o . o . . ) F . . o o o o ' | ' ' ' ' ' ' ' j o   . o . . . . . . o o ",
"o o o @ o @ o @ O O O . & [ [ [ [ [ ' 5.2.' - O O O @ @ d ) ' F O X . . . # ' ' | ' | ' 3.1.' j o @ o @ @ O @ O o .   o ",
", , , , , , , , , , $ O & [ X.{ [ ..{ 8.1.' q : , , , q A ' ' F , @ O . @ % '  .} |  .O.6.7.' k , , , , , , , $ @ o   o ",
", , , , , , , , , , % : 6 ' ,.8. .>.0.9.1.| e : , , , ` ' ' ' F , , @ . : > | :.0.X.} w.9.6.' k 1 , , , , , , , $ @ o @ ",
", , , , , , , , , , : : 6 | X.*.1.7.9.c.s.q 5 : : k D ' [ [ [ F , , @ : : > [ X.} 3.6.0.z.g.w 6 : , , , , , , , , @ o $ ",
", , , , , , , , , , : 2 9 _  .O.9.q.y.m.d.> 2 2 : D ' [ [ ' ^ S , , @ 2 > 3 _ ] X.7.q.y.v.h.1 3 2 : : , , , , , , @ o @ ",
", , , , , , , $ $ : : u Y Y @.w.9.x.D.t.-.Y Y Y : D ' [ [ [ 7 , , , @ : y Y Y P w.0.u.D.i.4.Y Y Y 2 , , , , , $ $ o . @ ",
", , , , , , , , , , : u Y Y C $.l.M.D.;.K Y Y Y : S ' [ [ [ 7 , , @ O O 4 Y Y V #.k.m.S.e.P Y Y Y , : , , , , $ $ o . @ ",
"@ @ @ o @ @ @ @ O @ o r u u i E n.B.B.Q Y Y Y u @ z ' [ ` ` # @ O + + . 3 u u Y U b.B.B.! Y u Y u @ @ @ O @ O @ o     o ",
". o . o . . . . o   o o o o r i R R R Y t . o . . l ' [ l X . . . D ^ . o o o , Y R R R T t O o o . . . . . . . o   o o ",
"$ $ $ $ $ $ $ $ @ $ $ $ $ @ $ r B p t r 3 $ $ $ , / >.[ A % $ $ $ F ) $ $ O   $ 3 N M t t t $ $ : , $ $ , , , @ $ $ $ @ ",
"$ $ , , , , , , $ r , , $ $ @ + ` n , , , , , , , =.9.[ A , , $ , F ) , $ @   @ , ( D , , , , , , , , , , , , , , , $ , ",
", , , , , , $ , , , , , , , @ + ` ` ( 8 , , , , $ =.9. .A , , 0 ) ` ) , % @ . $ , ( ` ) q , , , , , , , , , , , , , , , ",
", , , , , , , , , , , , , , $ + ` ' ' b q , , , , +.3.[ D h v n [ [ ) % , @ . $ , ) ' ' A d , , , , , , , , , , , , , , ",
", , , , , , , , , , , , , , @ + ` ' [ ' D , , , , S ' ' ' ' [ [ [ [ ) , , @ . @ , ( ' [ [ ^ , $ , , , , , , , , , , , < ",
", , , , , , , , , , , $ $ $ @ + ) [ [ [ ` F 0 , % S ' 6.:.[ [ [ [ [ ) , , O O @ , ) [ | [ ] F h , , , , , , , , , , , $ ",
"$ $ $ $ $ $ $ $ $ $ @ $ $ @ o + ^ ` [ [ [ ' q @ $ S ' 9.3.X.[  .X. .) , $ o . o @ D ) [ [ [ [ b $ $ $ $ $ $ @ $ $ @ $ @ ",
"o o o . . o o . . o o o o         j [ [ [ ' w o : S ' 9.0.9. .O.0.O.) > O o     . O - ' [ [ [ j . o o . o . o o o o o o ",
"o . . . o o o @ o o @ @ o o o o O k [ [ [ [ w @ : 6 g c.a.0.1.2.*.| ` : : @ o o o o ; ' [ [ [ f . . o @ o o @ @ O o o o ",
"$ o . o @ $ , $ $ , $ $ < < < , , n ` ' [ [ e # > 2 2 V.x.q.0.6.[ ' ) : > > < % $ % q ' [ [ | j . @ @ $ $ $ $ $ , $ $ $ ",
", @ . @ $ $ , , , , , , 0 ] b , , , , ) ' [ e 2 Y Y Y 8.a.S.q.0.9.C Y Y 4 5 ' S , , , , D [ [ j . $ $ , , , , , r $ , , ",
"$ $ . @ , , , , , , , , 0  .b , , , , ( X.,.x 2 Y Y Y #.s.S.x.r.$.W T Y 3 > [ S , , , $ D  .>.Z . $ $ , , , , , $ $ , , ",
"$ $ . @ , , , , , , , , 0 ' b , , , , ( *.8.m < Y Y Y T ~ C.C.j.Y i i T y 7 [ z , , $ % Z X.0.H . $ , , , , , , $ , , , ",
", $ . @ $ , , , , , , , 0 ' [ ) 7 , , ( { 9.m % @ o @ T T T T T Y 3 < , % % [ [ ' 8 % % D X.w./ . $ , , , , , , , , , , ",
", O . O @ , , , , , , , 0 [ [ ` v x h ) O.1.c $ o . @ t t t t t t r , , , 7 [ ' ' b x x F ..1.s . @ @ < , , , , , , , , ",
"@ o . . O @ $ @ $ $ @ @ 8 [ [ [ ' ' ' ' ' ' 0 O o . o @ $ $ $ O @ @ $ @ @ % [ | ' ' ' ' [ [ | f . O @ @ @ $ @ @ @ $ @ @ ",
". . . o o . . .       o & [ [ [ [ [ ' 1.,.' = . o . . . o o o o o . . . X X ' ' [ [ [ ' ,.<.[ j . . o . . . . . o . . . ",
"$ $ @ $ $ , $ % $ $ $ @ * [ ..{ [ ..o.7.1.' e $ $ $ $ $ $ $ @ O $ @ $ $ @ + '  .O.[ ..O.6.7.' j @ $ $ $ , $ $ $ $ $ $ $ ",
", , , , , , , , , , , : 0 | 2.9.| ,.9.9.1.[ e , , , , , , , , r $ r $ $ : > | :.0...O.0.9.7.' k : , , , , , $ r $ , , , ",
", , , , , , , , , , , > 6 | O.*.3.6.9.x.f.h 5 : $ , , , , , , , $ , $ $ : 5 | ..*.3.6.q.a.g.g 6 : , , , , $ $ , , , , , ",
", , , , , , , , , , : > 9 _ [ o.9.q.t.M.d.2 2 2 : , , , , , , , , , % , 2 3 _ [ ..7.q.q.c.h.1 > 2 > $ , , , , , , , , , ",
", , , , , , , , , , : u Y U &.w.9.x.D.t.-.Y Y Y : 1 , , , , , , , , , > t Y Y P w.9.i.D.i.4.Y Y Y > , , , , , , , , , , ",
", , , , , , , , , , 1 t T U C %.l.M.Z.;.L Y Y i , , , , , , , , , , , : t Y Y V $.p.v.D.e.I U Y Y , , , , , , , , , , , ",
"$ , , , , $ $ , , , $ t Y Y Y R N.C.A.Q Y Y T t , , , , , , , , $ , , , t Y Y Y Y b.A.A.! Y Y Y Y , , : , , : , , , , , ",
"o o O o O o o O o o o @ $ @ r U W W W Y t @ , @ o o o o o o o o O o O o o o . , Y E W W R t @ @ @ o o o o o o o O O o o ",
"o o o o o o . . . . . o o o , r r r r r 3 . o o . o o o . . . . . . . o o o o : r r r r 3 3 O o o o o . . . . . . o . o ",
", $ , , , $ @ o . @ @ , , , , , $ , $ $ , $ $ , $ , $ , $ @ o . o $ $ $ $ $ $ % $ $ , $ , $ , $ , $ $ $ o o o o $ $ $ , ",
", , , , , , $ @ . @ , , , , , , , , , , , , , , , , , , , $ @ o $ , < , $ < $ r , , , , , , , , , , , , $ o o $ , , , , ",
", , , , , , , @ . $ , , , , , , , , , , , , , , , , , , , , @ o , , , , , , $ $ , , , , , , , , , , , , $ o o , , , , , ",
", , , , , , , @ . @ , , , , , , , , , , , , , , $ , , , , , o o , , , , , , , $ , , , , , , , , , , , , $ o o $ , , , $ ",
", , , , , , , @ . $ , , , , , , , , , , , , , , , , , , , $ @ o , , , , , , , , , , , , $ , , , , , , , , . o , , , , , ",
", , , , , : $ o . o $ , , , , , , , , , , , , , , , , , , @ o o @ , , , , , , , , , , , , , , , , , , $ @ . o @ , , , , ",
"$ @ $ @ @ @ o . . . @ @ @ @ @ @ @ @ @ @ $ @ @ @ @ @ $ $ @ o . . o o $ $ $ @ $ @ $ @ @ @ @ @ @ @ $ @ @ @ . . . . @ @ $ @ ",
"          . .   .   . .   . . .   . .         . .   .   . . . .                     . .     .     .   . . . . . . .   . "
};
