/* XPM */
static char *result[] = {
/* columns rows colors chars-per-pixel */
"60 60 99 2 ",
"   c #030A0E",
".  c #0A0B0F",
"X  c #070E12",
"o  c #0C0D12",
"O  c #061214",
"+  c #0E1115",
"@  c #0B161A",
"#  c #0E191E",
"$  c #111216",
"%  c #13161A",
"&  c #18161A",
"*  c #14191E",
"=  c #191B1F",
"-  c #23171B",
";  c #24191E",
":  c #331A1F",
">  c #171B20",
",  c #181C21",
"<  c #231E23",
"1  c #2B1B21",
"2  c #351D22",
"3  c #3A1F25",
"4  c #232125",
"5  c #2B2327",
"6  c #2B2329",
"7  c #302327",
"8  c #3A2026",
"9  c #33242A",
"0  c #3A242A",
"q  c #4B161B",
"w  c #52171E",
"e  c #54181E",
"r  c #5C191F",
"t  c #421F28",
"y  c #551920",
"u  c #5D1A22",
"i  c #631D25",
"p  c #691F26",
"a  c #671F28",
"s  c #691F28",
"d  c #44252D",
"f  c #4F242B",
"g  c #41292F",
"h  c #52252D",
"j  c #58262C",
"k  c #56292F",
"l  c #442A31",
"z  c #4B2A32",
"x  c #542D33",
"c  c #5C2D34",
"v  c #562F39",
"b  c #563035",
"n  c #56323A",
"m  c #662026",
"M  c #692027",
"N  c #6B2129",
"B  c #75252B",
"V  c #79262E",
"C  c #7A282F",
"Z  c #662E35",
"A  c #762630",
"S  c #7C2730",
"D  c #7D2932",
"F  c #673037",
"G  c #66333B",
"H  c #6D333B",
"J  c #73353C",
"K  c #7B343C",
"L  c #77383E",
"P  c #7C393F",
"I  c #6C3740",
"U  c #743741",
"Y  c #7C3741",
"T  c #763840",
"R  c #7D3941",
"E  c #832D36",
"W  c #882D36",
"Q  c #862F38",
"!  c #892F39",
"~  c #843036",
"^  c #863039",
"/  c #8B343D",
"(  c #83383F",
")  c #92363F",
"_  c #843641",
"`  c #8D3641",
"'  c #843942",
"]  c #8D3842",
"[  c #923742",
"{  c #933943",
"}  c #9C3D45",
"|  c #963E48",
" . c #9D3E49",
".. c #A33E46",
"X. c #A33F49",
"o. c #A83F48",
"O. c #9B414A",
"+. c #A24047",
"@. c #A4414A",
/* pixels */
"* % + o o $ * % % % % % * % % % % % % * % % % * % + o o $ % * % % % * % % * # % * * % % * % * & o o o % % * % * % % % % ",
", * % o o * , , , , , , , , , , , , , , , , , , > % o o % , , , , , , , , = , , = = = = , , , * % o + * > , , > , , , , ",
", , , + o , > > > > , , > , , * * , = , > > > > , , o $ , > , , > > , = = > > > , , * , , * > > > o $ , > > > > , * * , ",
"* , , + o , , * > > > * > * > , , = , = > > > , , , o % , = , , = , = * = > > > * * , , , , * > > o $ , > > > > > , , , ",
"> > , + o , , = , = > > > > = , > > > > > > , > * #   + > # * # # # * * , , = , , , , > > > , , > o $ , > > > > , , > * ",
"> > , + o , > > , * > > > > > = > > = , * , * , 9 0 : : 9 0 0 9 0 0 0 7 , * , , > > , , * > * > > o $ , > > > > * , > , ",
", , % o o % > , , , , * , , = = , , , , > , * 6 O.O.O.O.O.} O...O.O.O.O., > , * , , , , , , , * % o + * , , , , * , , , ",
"% % o o o o $ % % % % % % @ % @ @ % O x R L L R ) / ! ! ! / ^ / ] ^ ~ ` U U T R 0 O % % % % % $ o o o + % % $ % % % % @ ",
"o o o o o o o + o o + o o o o + o $ : K o.} ..} / ^ E E E E E ^ / E Q ` } } } @.Z - o . o o + o o o o o o o o o o o + o ",
"> > , , , , > > > , , , , , , > * 9  .} } / / / ~ ~ E E E E W E E E E E ` ` ] { +.| & X @ , = , > , > > , > , , , , , , ",
"> > , > > > > > > > , > , * 6 J J K ! / / ^ ^ ^ E ~ E C V V C C C E E E Q Q / ) ) ) H H H 4 # , > > > > > > > > > > > > ",
"> > > > > > > > > > > > , 4 b ..} [ E D E E E E E E C B B B B B B D E E E E E / / /  ...| l 4 , > > > > > > > > > > > > ",
"> > > > > > > > > > , * > L ..} ^ E E Q W E W W W C B B B B B B B B V Q Q E E E ~ E / ` / O.G # > , > > > > > > > > > > ",
"> > > > > > > > > > # 9 H { { / ^ D E D C C C C C V B M N V B B B B B S C V V E E E / / ] { ( H 4 > > > > > > > > > > > ",
"> > > > > > > > > , 4 v @.| [ E E E E V B B B B B V B m N B B B B B B B B B V E E E E E / ` ) O.l < , , > > > > > > > > ",
", , > , > , > > > , ' O.} ] / E E E B B B B B B V N M M M M M m s s s V B B B B D E E E ~ ) ) / | I > , , , > , , = , = ",
"o o o o o o o o . o ( ..) / E E S V B B B M N N B M M M M p M M s s s B B B B B A S E E E W / ] { Z   o o o o o o o o o ",
"+ $ + @ + $ + % & < _ { / W E E B B B B A s a a s s M M M M M s s s s p B B B B B B E E E E W / [ Z = % $ + + $ o o o o ",
", , , , , , , # l | ] / E ^ E E C B B B B s M M M M M M M M M p r r i s p N B B B B B B B E E E ) ` ` 6 # , , , * + o & ",
"> , > > , , > x _ } / / E ~ W V B B V N N M M M M M s M M m i u u y i a p a N S B B B B B E E E ` ` ` K b , > > > & o , ",
"> , > > > > > P o.{ [ ` E E E B B B B N M M M M m M M m m m u u u u i a M a a A B B B B B E E E / ` / ..R > > > , % o > ",
"> * > > > , > L } / [ ! W V N B B B V M M M M a u m m u u u u u u u u i M a a m B B B B B B C E E Q ] } T > > > , % o * ",
"> > > > , > > Y } ` ` ` E B B B B B M M M M M m u i u u u u u u u u u u i a N a a M B B B B C E E ^ ` } J # > > > % o * ",
"> , , , , , 4 Y { ` ` ! E B B B V B M M M M M m u u u u u u u u u u u u u i N M s s B B B N C ~ E ^ / [ J 4 < > * o o $ ",
"% $ $ & O 3 | [ / [ ^ E E B B B B A M M M M u u u u u u u u q w u u u u u i N m M p B B B B C ^ E E E / ] O.x + + o o + ",
"o o . o   : @.[ ` ` ^ E E B B B B N M M M M i u u u u u u u q q w w y i u u i m p p N B B B B C E E E / [ @.j   . o o o ",
"> > > , # d ..` ` ] ^ D B B B B M p M M M M u u u u u u u u q q q q w u u u u M M M M M B B B B D E E / ` ..c # , > > + ",
"> > > , * 0 [ ` ` ` ^ D B B N p M m M M m u u u u u u q q q q q q q w u u u u M N M M B B B B B B C E E / @.c # , , > = ",
"> > > , # 0 } ] / ^ ^ E B B B M a M M M p r u u u u u q q q q q q q y u u u u u p M s N B B B B B V E E E ) k * > > > , ",
"> > > , # 0 X.[ / D E D B B N M N a M M i r u u u u y q q q q q q q w u u u u u i M M N B B B B B V ^ E E E f * > > > , ",
"> > > > % 0 | ` / E ^ D B B B B N M M M p u u u u i u q q q q q q q q q u u u u i M p N B B B B N C E E E E f * > > > , ",
"> > > > > 0 [ ` / E E D B B B A M M M M p u u u u y y q q q q q q q q q u u u u i M p B B B B B V E ~ ~ E / k # , > > > ",
"> > > , * 0 [ ] / E Q D B B B B N M M M m r u u u w q q q q q q q q q q u u u u p M p N B B B B E E Q E Q [ c > > > > $ ",
"o o o +   2 ..] / D Q D B B B B N M M M M M i u u u e q q q q q q q q q y u u m s M p N B B B B B S E ` ` [ t X o o o o ",
"$ o o o X 0 X.[ / ^ Q D D B B V N M M M M M i u u u u w q q w y q q y y u u i M s M N B B B B B A D E ` ` } h X % + + + ",
"> $ o $ + 0 O.` ` ` Q E E V B B N a M M M M i u u u i u y q u y q q y u r p M M M p B B B B B B E E E ! [ X.c > , , > > ",
", * o & > , < Y { ] E E E V B B B N M M M M m a u u u u u u u u y y r u u i N M M M B B B B B B E E E / ` { k # , > > > ",
", * o % , > # H ) / / Q E V B B B B M a N M M m u i u u u u u u u u u u u p N M M N B B B B B B E Q Q / ` [ k > , > > > ",
", * o % , > > H { [ ] / E C B B B B a N m M m m r p p u u u u u i y u r a a M M N B B B B B B B D Q ` ` ` { x % , > > > ",
", * . % > > > Y } / ) / E B B B B B a M M a N M p p p u u u u u a p s p s s M N B B B B B B B E E E E .._ 6 < > , > , > ",
"> % o $ * , > n ' [ ] / E B B B B B M N m M M M M m s i i i i p M M M M M N M B B B B B B B C ^ Q Q W U n * > , , , , , ",
"% o o o $ * > O l @.` / E V B B B B B N N N M N M M p M p p p M M M M M p N B B B B B B B E ~ ~ ` [ O.9 @ * * % * % * * ",
"o o o o o o o . $ 2 K [ / E D B B B B B N A M M M M m M p M M M M M m M B B B B V B B V E E E E } J ; $ o o . o o . . . ",
"> > > * > > > > % = K { ` Q E S S A B B A B N N N M p M M M M M N N B M B B B B B B B V E E E ^  .J + > * > * > = = > , ",
"> > , > > , , > , , ' | ` W E E ~ E B B B B B B V M M M N s p M B B V B B B B B B B B S E E ^ /  .I > , , > , , > , , , ",
"> > > > > > > > , > 4 x { ` ` / E E D S B B B B B B B m N B B B B B B B B B B B V E E E E / ) ) d , > > > > > > > > > > ",
"> > > > > > > > > > * 6 G _ [ ` / ~ Q D V V V V B V B N B B B B B B V C C C C C D E / W E | R b < > > > > > > > > > > , ",
"> > > > > > > > > > , * # R } ` ] / E E E E E E B B V B B B B B B B C W ^ ^ E E E E / ` ` } G # > > > > > > > > > > > , ",
"> > , , , > > > > > > > > < b +.) ) / ^ ~ ~ E E D S B B B B B B B B C E E ~ E E D Q [ | } l 4 > > > , > > , > > , > > , ",
", , , , > > , , , , , , , > 5 H F H { ^ ~ ^ E ^ E D C S V C B B C V D E E E ~ ^ ^ ^ G H U , > , , , , , > , , > , , , , ",
"+ + + + + + + + $ + $ $ + $ + .   ; { / ` ` ` / E E E Q E E B V W E E ^ E ^ ] ` [ ` % X o + + + + + + + + + + + + + + + ",
"o o o o + o o o . o o o o o o $ o & 1 K ..} } } / ` / E E E E E E E ! / [ ) [ ..F ; $ o + o o o o o o o o o o o o o o o ",
", , , , , > % + o $ * , , , , , , , # b P J J R [ [ ` Q Q ^ / W E ^ / ` H H H L l # , , , , , , , , , > $ + + % > > , , ",
"> > > > , > , * . * > > , > > > , * , , , > # 6 | } [ [ ) ) [ / E O.} K , > > , > > * , , * , > > > , > > o o > > > > > ",
"> > > > > > > % . * , > = > > > , * , * > , = 4 z z z l z z d t d z z d , > > > > > > > , = , > > > > > , + + , > > > > ",
"> > > > > > , % o * > > > > > > > , > > > > > * * # * * # * O X , % # * > > > > > > > , * , , * > > > > > o + , > > > > ",
"> > > > = = , * . > , > * > > > > > > > = , = , = , = , , , & o , , = , = = > > > > > > = = , > > > > > > o + , , > > > ",
", , , , , , * + o $ * , , , , , , , , , , , , , , , , , , * + o % , , , , , , , , , > , , , , , , , , > * + o * > , , , ",
"* % > * * * @ o o o $ > * * * * * * * % & % * * * * * * % $ o o % % * * * * * * = * * * & % * % * * * * + o o o * % = * ",
". o . o . . o o o o o o . . . o . . . . . . . . . . . . o o o o . . . . . . . . . . . . . . . . . o . . o o o o o . . . "
};
