/* XPM */
static char *result[] = {
/* columns rows colors chars-per-pixel */
"60 60 38 1 ",
"  c #0A0907",
". c #090709",
"X c #07080A",
"o c #0C0A0B",
"O c #120C0D",
"+ c #190F0F",
"@ c #16100F",
"# c #150E10",
"$ c #180F12",
"% c #171011",
"& c #1D1214",
"* c #1E1418",
"= c #231516",
"- c #281617",
"; c #261817",
": c #291817",
"> c #231519",
", c #29161A",
"< c #25181B",
"1 c #2C1A1C",
"2 c #331D1E",
"3 c #3A201F",
"4 c #2C1B21",
"5 c #321E22",
"6 c #391F22",
"7 c #361F28",
"8 c #3B1F28",
"9 c #362122",
"0 c #3B2222",
"q c #3D2129",
"w c #432525",
"e c #482627",
"r c #452826",
"t c #4A2826",
"y c #452628",
"u c #492628",
"i c #472828",
"p c #4A2829",
/* pixels */
"OoO>>==>=>=====Oo%==-=-------::---------+;@ +>==&>*==>=>*ooO",
"oo$q8qq8q000000@o>w0ewewewwe3ttwwewe3ett33+ =w3000qqqqqq7.Oo",
"Oo%q08888886003Oo=03wwwwwwwwww3wwwwwwww333+ =000000q9qqq5o#O",
"18700800080www0% -ewwwwwwwwwwwwwwwwwwwwwww@ =r0wr00qq009667$",
"4q9q000066wwwrw#X-pwwwwwewwwwt3twwwwwwwyrw@X,prwr03q9000q0q>",
"1q900000wwwww00Oo=00wwww3wwwwwwwwwwwwwww00Oo>0qwww000w0908q&",
"28906wyyywyww57#o=57wrwwtwteetwtwwwwrwr057O =75wwyiyww00088&",
"4qq06www0www845Oo&550rww3w3e33e3www0ww0054@o&550www0ww03080=",
"2q800wr0OOOOO#OOOoo#O@O@+OO@O@O@@@@o@O%#OOOoo@@oo#O*rw000qq&",
"180q6ww6oooOoooooooooXXX  o  oo XXooooXoooooooXOoo &rw00088&",
"1q8000u6OoOo#*&&&>**=&>;-;;=&*&&;;<;>&&&&=**=&&oo@X&rw0308q&",
"1qq96wu6oOOo%444444444903w334444000009444444444@oOX&rr0008q&",
"10806wy6oO#O$41444414490900541419009q4144144141@OoX*rw00080&",
"2q0wwry6Oo>44603020000990000q00009000900033033044&X&wwwwr20&",
"100rwww6oo<45300000000000900009009900900000900344&X&rwwww60&",
"100rwwr6o#<45030000w0w0ww00w0ww0ww0ww0r0w00900044*X*rwwww60&",
"1w6ywwr6o#<4403q00uytpyryirryyiyrrrqrirrrr0900344*o&rwwww00&",
"206wwwr6oo<43300002622233232232333933933350000044%X&rwwww30&",
":06rwwr6oo<4400wi: oooooooooooooOXooXooooo0iq0044&o&wwww000&",
"206wwwr6o#>1590wy1oOOoOoooOoOoOo@oooooOooO0r09011& %rwwww30&",
":30wwww0oo499000u1ooOo&<>><<>>>>*<<**OOOOO0r00090=X&wwwww00&",
"20wwwww0o%30390we1oooo*44444444444444@XOoo0r00000=o&rwwww90&",
"196wwwr0oO10000we1 O$%>44454454445155*%%oO0rw0090*X&rwwq099&",
">41600yqoo30006wu1oo1490000300000000045*oO0r00000=X&rr09941%",
">4406wr6oO20000wp1Xo<430900900900000044*X@3rw3000<o&rw00214$",
">4500ww6oO@%%@++&@o#4420000000033000344*oo&+@@+%%#o&ww00644#",
">44068y6oOooXoo  oo#4420000900000009044<oO XXXXoooo%rw00944$",
">4402wu6oO%**&&==#oo>420093000000900054*XO&===&**@o&rr00644%",
">410wwu6o#50006rt1oO44400000iqrr0903044<oO0tr0000*X&ww005<4$",
">4402wu6oO20006we1oO<490000wrrrq0000044*oO0r00090=X&rw00644%",
">42066w6oo30306wt,XO44200900wwrr0000044*XO3r00090=o&rw00944$",
">41w6wu6Xo3w00wep,oO142000q0rrrq0000044>o@0tr000r=X&rr00914$",
">4506ww6oO&==*=;-& O14200000000q0000054*Xo==>==*;%o&rw00044#",
">4406wu6oOoXooo XoOO1420000009000300044*X@XoooooX o&rw00944#",
">4406wu2ooOOOOO#O#OO1440900930009090054<oO@$@@@O@@o&rw00644$",
">4206wu6oO60003wr, O44560000000q0003044*X@3r03930=X&r000244$",
">4466we6oO300000e:oO446q300000000000054*oOwrw0090=X&rw00941$",
"<96wwwe6oo10000wr1XO%%>54594944455555*&&oO3r00000=X*rww0023+",
"100wwww6o@30900we1oooo*41444444444444@XooO0r09000*X&wwwrw00&",
"200ywww2oo139q0wr1oOOo&,<1<<<<4><<<<<%oooO0p0039q&o&rwwww9q%",
"208wwwr6oO<4500we1ooOooOOOOoooOooOOooOoOOO0r00044$.*r0www00%",
"200wwwr6oo444000r1X ooooXX..ooooooXXoooooo0rw0944*.*rwwww00&",
"136rwwr6oo<42000092222215222222122222122220000044%X&rwwww90&",
"236wwww6o%<440009wprrrrrrrrrrrrwrrrtrrrrrr0900044&o&rwwww00&",
"200rwww6o#<4930000r0wwwwwwwwwwwwwww8www0w00090344&X*rwww000%",
"136rwwr6oo<44030009099096066000360009090090000344&o&rwwww00%",
"200rwww0o#<49390000060900002000000063000000000044& &rwrrwq0&",
"4000qwy9oo%@&34444145199300644442003q5154124445%$Oo&ww0000q&",
"1q803ww6oooX+4444444446800q94444000004444444444O.Oo&uw6208q&",
"2q800wu2oOOO#>>>***==*-,::1<=*==,1::1>>>==*=*=*OoOo&uww008q$",
"188028y6oooOoooooo.oo  o o  ooo  oooooooo ooooooooo&ww02088=",
"58860wy6OOOOOoOoOOOoOOOOOOO@oOoOOOoOOoOOoOOoOoOOOOo*rww0088$",
"1qq00www0w30q44oo=4206w233w3w303033033w244OO*4400000uw0008q&",
"1q903rwwyirr099O =76rrrerwwwrwwwrrrwrwt056#o=99wrrrwww0068q$",
"5qq90q0w00ww009@X>08wwwrwwwwwwwwrwwwwwwq82Oo<0qwyw0rw000w88$",
"4q90006090wyryroo,uwwwwwwwwwwwwwwwrwwwwrwrOo1iwwwq90900068q$",
"1880660330wywwq@ :rwywwwwwwwrwwwwwwwwwwww0Oo:rwww0000000q67$",
"OO$08888008q003@o=00wwwwwwwwwwwwwwwwwww003#o:000000q88q05OOO",
"oo$y88q88w00006O :w0rrrtrrrrerrerewreerrw6#o:w0008qq888y2 Oo",
"OoO4,,4,,,->-,># &,-1:111,1,:11::11:1:,1->Oo&:==,,,>,,,,>OoO"
};
