/* XPM */
static char *result[] = {
/* columns rows colors chars-per-pixel */
"60 60 196 2 ",
"   c #0C0E0F",
".  c #0C0E12",
"X  c #110F14",
"o  c #0F1115",
"O  c #121216",
"+  c #1C1117",
"@  c #13151A",
"#  c #1D151B",
"$  c #161A1E",
"%  c #19191E",
"&  c #23131A",
"*  c #2A141D",
"=  c #22191F",
"-  c #2B191F",
";  c #33131E",
":  c #341D1C",
">  c #3D231A",
",  c #171B20",
"<  c #191C21",
"1  c #261621",
"2  c #2B1621",
"3  c #261C22",
"4  c #2C1A24",
"5  c #2E1B29",
"6  c #341624",
"7  c #3A1625",
"8  c #321B25",
"9  c #391827",
"0  c #341C2C",
"q  c #3C1829",
"w  c #361F31",
"e  c #381F32",
"r  c #2A2126",
"t  c #2E2328",
"y  c #342127",
"u  c #392422",
"i  c #35232A",
"p  c #34292E",
"a  c #372732",
"s  c #3A2235",
"d  c #3C2C33",
"f  c #3D233A",
"g  c #3A3337",
"h  c #4A2C1C",
"j  c #633C1C",
"k  c #441422",
"l  c #4A1525",
"z  c #4C1729",
"x  c #421A2D",
"c  c #521425",
"v  c #571829",
"b  c #461D30",
"n  c #4C1C33",
"m  c #521E37",
"M  c #571E3A",
"N  c #591F3B",
"B  c #64152A",
"V  c #6B162B",
"C  c #751A2E",
"Z  c #7A1831",
"A  c #472A26",
"S  c #503C2A",
"D  c #422C33",
"F  c #42243B",
"G  c #49243E",
"H  c #442B3B",
"J  c #53233C",
"K  c #5C203D",
"L  c #552B3C",
"P  c #5A2A3F",
"I  c #453036",
"U  c #4C353D",
"Y  c #423A3D",
"T  c #4E393E",
"R  c #54343F",
"E  c #513A3F",
"W  c #5B3A3F",
"Q  c #6F252C",
"!  c #662839",
"~  c #5E482E",
"^  c #5D413C",
"/  c #6D4A38",
"(  c #734D38",
")  c #795635",
"_  c #4C2440",
"`  c #542442",
"'  c #5B2545",
"]  c #522941",
"[  c #453E41",
"{  c #563641",
"}  c #5C3444",
"|  c #533A40",
" . c #642342",
".. c #6B2446",
"X. c #662C47",
"o. c #622648",
"O. c #6E2549",
"+. c #6D2D4B",
"@. c #73264C",
"#. c #742C4E",
"$. c #7A2A48",
"%. c #633445",
"&. c #653B40",
"*. c #643348",
"=. c #6A314A",
"-. c #783840",
";. c #792750",
":. c #772A50",
">. c #7E2853",
",. c #494245",
"<. c #4A4446",
"1. c #4E494B",
"2. c #554548",
"3. c #534E50",
"4. c #575354",
"5. c #5E5D5D",
"6. c #891834",
"7. c #9A1737",
"8. c #961837",
"9. c #9C1738",
"0. c #A4173A",
"q. c #AC173C",
"w. c #AF193F",
"e. c #B5183F",
"r. c #8B2931",
"t. c #932835",
"y. c #9A3534",
"u. c #A13135",
"i. c #B33534",
"p. c #B53934",
"a. c #C01C3F",
"s. c #C62D3B",
"d. c #CF2D3D",
"f. c #D02D3E",
"g. c #CA313B",
"h. c #D53F3F",
"j. c #8D571C",
"k. c #B9731D",
"l. c #855736",
"z. c #9E662D",
"x. c #D17D1F",
"c. c #CC532E",
"v. c #D1562E",
"b. c #D14534",
"n. c #D55736",
"m. c #D2682A",
"M. c #C57D23",
"N. c #D17324",
"B. c #D27B21",
"V. c #DC7F3A",
"C. c #B51F44",
"Z. c #8C3447",
"A. c #802954",
"S. c #AB2243",
"D. c #B72244",
"F. c #A33148",
"G. c #C41842",
"H. c #CA1A43",
"J. c #D11646",
"K. c #D21945",
"L. c #CD2443",
"P. c #CF2944",
"I. c #D62444",
"U. c #D83943",
"Y. c #865843",
"T. c #B64142",
"R. c #C54143",
"E. c #D74243",
"W. c #DD4442",
"Q. c #E84443",
"!. c #DF634A",
"~. c #E0684B",
"^. c #D1841D",
"/. c #D38421",
"(. c #D68B25",
"). c #D6892C",
"_. c #DE9932",
"`. c #E29E3C",
"'. c #E4A63E",
"]. c #E5A83E",
"[. c #A18748",
"{. c #E98645",
"}. c #EC9E4B",
"|. c #F18755",
" X c #F08F51",
".X c #ED9152",
"XX c #E7AB42",
"oX c #E8AD45",
"OX c #EAB148",
"+X c #EFB750",
"@X c #F1BC53",
"#X c #F7C45E",
"$X c #EDCA65",
"%X c #F9CC61",
"&X c #FBD165",
"*X c #FDDB6B",
/* pixels */
"@ @ o . . O @ $ @ @ , @ @ @ @ $ @ @ $ @ @ @ $ @ @ o . . o @ , @ $ @ $ @ @ @ @ $ @ $ @ $ $ @ $ @ o . o o @ @ @ $ @ @ @ @ ",
", $ @ o . @ $ , , , , , , , , , , , , , , , , , , @ o o @ , , , , , $ , , , , , $ , , $ , , , $ @ . o $ , , , , , , , , ",
", , $ o o $ , , , , , , , , , , , , , , , , , , , $ o O , , , , , , < $ , , , , , , , , , , , , $ o O , , , , , , , , , ",
", , , O o $ , , , , , , , , , , , , , , , , , , , $ . O , , , , , , , $ , , , , , , , , , , , , $ . o , , , , , , , , , ",
", , , O o $ , , , , , , , , , , , , , , , , , , , # . @ , , , , , , $ % $ , , , , , < < < < , , , o o , , , , , , , , , ",
", , , o . $ , , , , , , , , , , , , , , , , , , 1 & . @ , , , , , , % * % , , , , , $ $ , $ $ $ @ o o , , , , , , , , , ",
", , O . . @ $ , , , , , , , , , , , , , , , $ # [ 4.+ O @ , , , $ # r 5.p = $ , , $ $ $ , $ $ $ @ . o @ , , , , , , , , ",
"@ o . . . . O @ X @ @ @ @ @ # @ @ # @ O @ @ O + p g [ 3 @ O @ O + g Y g r + O O @ @ @ % @ # # o . . . o @ @ @ @ @ @ @ o ",
"o o . o o o o o o o o o X X & + O & O o     o O + 4 5.d & o O O & ,.3.& + . O o o o & + . + + O o . o o o o o . o o o o ",
", , $ $ $ $ $ $ $ $ $ , & & & # @ & & + o + & $ # 1 | y & & & & & I U & # % & % @ & & + @ & & & $ , @ $ @ , , , , , , , ",
", , , , , , , , , , $ , x M & < % & g ,.+ g Y & & - H 5 * N N m & 0 s & & 3 <.r 3 ,.4 # , # 6 K 4 , , , , , , , , , , , ",
", , , , , , , , , , , # N ;.& # $ & g 3.< ^ 4.& & & s 0 q A.A.@.6 0 a & & r 5.d p 4.t # , & 9 >.6 # , , , , , , , , , , ",
", , , , , , , , , , , & M ;.& # $ $ # 3 5.3.T & & & & ' A.A.A.A.>.x & & & - E 4.3.* O @ , # 9 A.9 & , , , , , , , , , , ",
", , , , , , , , , , 1  .@.;.& , $ & g 1.2.D 8 & & * 0 F ` A.>.;._ b 0 & & & y T 2.1.r + , & q >...m & , , , , , , , , , ",
", $ , , , , , , , # * >.A.;.& # % & ,.5.E y & & & - ] } ! O.@.O.! P F & & & & D 2.5.p + $ # q >.>. .& , , , , , , , , , ",
"$ $ $ $ $ $ $ $ , # * A.A.;.& + @ & [ 5.W y & & & * A.D.E.f f L Q.F.O.& * & & I 2.5.p + @ & 9 >.>. .& , , , , , , @ , , ",
"o . . . o o o . . + - A.A.;.& + . & ,.5.E H w & & * _ $.Z.@.@.;.F.' n & & 1 w U | 5.p # . + 9 >.A. .& X . . . . o . o . ",
"@ o @ @ o o O O O 1 x A.#.+.q = + + g 1.T U F 1 - & f ' @.A.>.>.O.G f # 1 5 H T | 1.r # O 6 n #.>...x < @ O @ @ o . . . ",
", , , , , , , , & N A.A.%.{ A.n & , # & | E { f 2 * f f F ;.>.@.f f e & w F | | D & % % & ..#.T ;.>.A.6 # , , , @ o . @ ",
", , , , , , , , & N >.{ { E { X...& & & - - 1 & & & & e f _ _ _ f 5 * & & 2 1 - 1 & & 8 @.} { T { *.>.6 & , , , , @ o @ ",
", , , , , , , , & M >.E [ U | ' K & k v & 7 x & & & & 0 f _ H H f 5 & & & * x - ; B ; 2 ! { { U T } >.9 # , , , , @ . @ ",
", , , , , , , , & M >.E H f | y + & 6.G.& N ;.& & & & 0 f | | [ f 2 & & & 7 A.q k J.c + + D T f U *.>.9 # , , , , @ o @ ",
", , , , < < # & $.;.;.E H f & j.k.& * k h.Q 7 @.@.@.T y & - 1 1 & D R @.@...- u.i.6 * h k.h 8 f T %.>.@.N & , , , @ . $ ",
", , , , < < & * A.:.=.E _ e 5 j j.+ S ) t.Q n >.>.>.*.D y y y y y L X.A.>.@.x r.y.) u > j.A 0 f U { +.;. .+ , , @ o . o ",
"@ o @ @ @ @ @ & A.*.| | H f f 5 & + [.$X+ N A.A.>.>.A.%.| | E ^ T #.>.>.A.>.A.q S *X~ + & w f f T | E #. .& O @ o o . o ",
"o . . . . . + 2 A.%.E f F f f 5 ; e.C h h.Q 6 >.A.A.>.>.:.:.>.:.>.>.>.>.>.@.; u.p.> 7.7.& w f f f H E :. .& X . . o . . ",
"$ $ $ , @ , # & A.=.T f f f 0 z V h.r.V y.v ; A.A.A.A.A.>.A.>.>.A.A.A.A.>.O.& Q r.B i.i.B x w f f H | #. .& # $ , @ @ @ ",
", , , , , , # 2 A.*.T f f f + 6.d.x.h.a.+ & * A.A.>.A.A.>.A.A.>.>.>.A.A.A.O.& & k J.m.m.J.l - s f H | #. .& , , , , , $ ",
", , , , , , # 2 A.*.T f 8 ; G.c.x.#X`.N.a.B * * K A.>.>.:._ f _ >.>.>.A.x * & 8.s.x.+X+Xx.g.8.* a H | #. .& $ , , , , , ",
", , , , , , # * A.%.T 0 v C b.V.'.oXXX'.b.t.B & m o.o.' o.' ' ' o.o.o.o.8 ; V p.n.'.oXOX].n.p.V x s E #. .& % , , , , , ",
", , , , , , # * A.%.U * 6.L.(.OX%X^.OX#X/.b.a.* w f _ f _ >.>.:.F F f f 9 k H.m._.&X_._.&X`.N.H.l 9 { #. .& % , , , , , ",
", , , , , , # * A.n ; H.c./.&X].(.&X].(.%X`.N.H.v 2 :.;.;.>.>.>.;.>...& 8.s.x.OX#X/.@X@X/.@X@Xx.s.7.& .. .& % , , , , , ",
", , $ $ , , # 2 A.n ; J.v.x.|.}.oX|.}.oX|.).B.K.B 2 ' M n n n n n ` ` & 9.d.^.{. XoX.X.XoX.X{.^.g.0.& .. .& , @ , , @ @ ",
". o o . . . + & >.n * J.c.x.E. X#XE..X@XW.n.N.J.B & s 0 : u > : 6 i w & 9.f.B.n.!.%X!.!.#X~.n.x.d.0.& ..! & X . . . . . ",
"O o . . . @ + * >.n ; J.U.W.W z.B.E z.M.| T.Q.J.B & & W l./.B.k.Y.A & & 7.K.Q.-.( ^.) / /./ -.Q.L.9.& .. .& X o O O @ O ",
"$ O . . @ , # * A.` D B q.P.T / ) E ( ) | F.L.v ; & * > A j j j A ; & & c Z U.Z.W ) W / ) / -.I.6.v D @. .& , , , , , , ",
", @ . o , , < * A.*.{ & Z w.! | W &.W { %.t.0.& ; 6 6 4 1 - - - 1 6 6 6 * ; e.Q %.| &.&.E %.! D.l 0 { #. .& % , , , , , ",
", @ . @ , , & & A.>.>.f 5 * K.Z.W Q.Y.! J.V & & K A.>.*.| W | | E +.A.A.x & & 7.C.| T.R.W S.0.* w _ A.A. .& $ , , , , , ",
", , . @ , , , , q  .>.T f 0 c 6.S.I.D.q.c ; *  .@.A.>.:.=.T | { +.>.A.A.O.K & k B S.L.L.S.V c w H } >.n 8 % , , , , , , ",
", @ o @ , , , , * M >.E H f - Z q.q.w.0.& 6 q >.A.>.#.$.+.| T { :.:.#.A.A.O.7 * k q.q.q.q.l 5 f | } >.9 & , , , , , , , ",
"$ @ . o $ $ , $ & M >.E H f f 5 + + + & & M A.A.>.>.T E T F f F E E { >.A.A.A.q & + + + + s f f T } A.9 & , , , , , , , ",
"@ o . o o $ @ @ @ 1 q #.} U f e s e D D & M >.>.=.{ H 0 4 1 1 1 r f H } #.A.A.x - I s a 0 f F U =. .9 # @ $ @ @ @ @ @ @ ",
". . . . o . o . X + * A.*.T f f f H H D & J $.#.} U w 1 + + + + + 8 s T =.#.+.q - I H F f f H E #. .* O . . . . o o . . ",
"$ $ $ $ $ $ $ $ $ # * A.*.| f f F | y & & D T T H e & # $ $ , @ $ # & f U E | 4 & & I U f f H T #. .& @ $ $ $ $ , @ $ $ ",
"$ , , , , , , , < % % 6 K #.f H U 4 < , , < 4 | H f & # , , , , $ # 1 f U U - # % $ - i T F G #.x 4 # < < , , , , , , , ",
", , , , , , , , , , % & M >.H D D & # , , # 1 | H f 4 # # , , , # 1 8 f D d + # < $ # 1 D H ] A.0 & < , , , , , , , , , ",
", , , , , , , , , , % & K >.| i & , , , , , < f f f f 5 & , , , & 0 f f 4 + . $ , , $ % & I } A.9 = , , , , , , , , , , ",
", , , , , , , , , , , % 1 8 :.b & , , , , , , < 1 4 f 4 & , , , & a s 1 # @ . $ , , $ % &  .X.6 < , , , , , , , , , , , ",
", , , , , , , , , , , , , % ! q & $ , , , , , , # * f 2 & , , , & 0 e & # O o @ , , , % & m m # % , , , , , , , , , , , ",
"$ $ , , , $ $ , , , , , $ $ & & & @ $ , , $ % , # & f 5 & , , , & w w & O o   O @ , $ $ & & # , , % $ $ , % , $ , , , , ",
"o O o O o o o @ o o o o o o O   X o o o O o O + p U | y + O O O & D T U r +     o o o o O O O o o o o @ o o o O O O o o ",
"o o o o o o . . . . o o o o o o o . o o o o o + r p p # + . . . + 3 p p = + o o o o o o o o . o o o o . . . . . . . o o ",
", $ , , , $ @ o . o $ $ , , , , , $ , $ , , $ , , , $ , , @ o . @ $ , , $ $ $ $ , $ , $ $ , $ $ , , , @ @ . . @ @ , , , ",
", , , , , , $ @ . @ , , , , , , , , , , , , , , , , , , , , O o $ $ , , $ $ $ < , , , , , , , , , , , $ $ o o $ , , , , ",
", , , , , , , @ . $ , , , , , , , , , , , , , , , , , , , , O o $ $ , , < $ < < , , , , , , , , , , , , , o o , , , , , ",
", , , , , , , @ . $ $ , , , , , , , , , , , , , , , , , , , @ o , , , , , < < $ , , , , , , , , , , , , $ o o $ , , , $ ",
", , , , , , , @ . @ , , , , , , , , , , , , , , , , , , , , @ o , , , , , , , , , , , , , , , , , , , , , . o , , , , , ",
", , , , , , @ o . @ $ , , , , , , , , , , , , , , , , , , @ o . @ $ , , , , , , , , , , , , , , , , , , @ . o @ , , , , ",
"@ @ @ @ @ @ o . . o @ @ @ @ @ @ $ @ @ @ @ @ @ @ $ @ $ @ @ o . . o @ $ $ @ @ @ @ @ @ @ $ @ @ @ @ @ @ @ @ o . . . @ @ @ $ ",
". . . . . . . . . . . .   . .     .   .             . . . . . . .         . .   .   . .       . . .   . . . . . . . . . "
};
