/* XPM */
static char *result[] = {
/* columns rows colors chars-per-pixel */
"60 60 67 1 ",
"  c #010000",
". c #0C0304",
"X c #070709",
"o c #0B0C0E",
"O c #130507",
"+ c #170508",
"@ c #1D070A",
"# c #110D0F",
"$ c #1C0A0C",
"% c #0C0D11",
"& c #150D11",
"* c #1E0E11",
"= c #0E1115",
"- c #101317",
"; c #1C1215",
": c #12151A",
"> c #1C161A",
", c #15191D",
"< c #1A191D",
"1 c #23090D",
"2 c #2B0A0F",
"3 c #250D12",
"4 c #2B0D11",
"5 c #340D12",
"6 c #3A0F14",
"7 c #241115",
"8 c #2B1115",
"9 c #211519",
"0 c #3E1016",
"q c #371218",
"w c #3C1318",
"e c #171B20",
"r c #181C21",
"t c #421117",
"y c #441218",
"u c #4A141A",
"i c #4E181E",
"p c #53161D",
"a c #58171F",
"s c #59181F",
"d c #5C1920",
"f c #631B23",
"g c #6C1D26",
"h c #711F27",
"j c #731F28",
"k c #732027",
"l c #752029",
"z c #7A222B",
"x c #6D6D6D",
"c c #83242E",
"v c #872630",
"b c #8A2631",
"n c #8E2832",
"m c #932934",
"M c #992B36",
"N c #9C2C38",
"B c gray53",
"V c #8D8E8D",
"C c #928A8B",
"Z c gray63",
"A c #B2AAAC",
"S c #AFB0AF",
"D c gray71",
"F c #C8C8C8",
"G c #ECE4E6",
"H c #EAECEB",
"J c white",
/* pixels */
",:=%%-:,:e::,::::,:,:,:::=%%-::,:,::::::,,::::,:=%%:::,::,::",
"r,:%=:eeeeeerrrrrrrrerrrr:%=:rrrrrrrrrrr,rrrrrr,:%=,rrrreerr",
"eer=%rreeeeeeeeeeeeeeeeerr%-reeeeeeereeerrr,ee,re%-reeeeeeee",
"eer=%eeeeeeeeeeeeeeeeeeere%-reeeeeeeeeeee,rreerer%-reeeeeeee",
"eer-%reeeeeeeeee,reeeereee%=rreeeeeeeeeee,,rreeee%-reeeeeeee",
"eee-=eeeeeeeeeeeeeeeeerree%-rreee<eeeeererr,eeeee%-eeeeeeeee",
"rr:%%:ereereeerrrerrerrre-%=:rrrrrrrre,rrrrrrrr,:%%ereereree",
"::%%%%-:::::::::::::::-$43214333323-:::::::::-:-%%%-::::::::",
"%%%%%%%%=%%%%%=%%%%ooo%5yuuyuuuyuyy$%%%==ooo%%%%%%=%%%=%%%%=",
"errreerrrrrreeerr,-o=&5fzmmmmMMMMmMt3r,r:=%-:rrerrrreeerrrer",
"eereeeeeeereeeee,r,-$8plvmmmjfgfggffi>>rr:o:eeeeeeeeeeeeeeee",
"eeeeeeeeeeeeeeee,rr&4sznmmmNp255545mb57er:oereeeeeeeeeeeeeee",
"eeeeeeeeeeeeeeeerr75flnmmMzu1.O...Oysci*e:o,eeeeeeeeeeeeeeee",
"eeeeeeeeeeeeeeeer,8ylvmmmbg2.      @0ng0<<o:reeeeeeeeeeeeeee",
"eeeeeeeeeeeeeeeer,3tlcmmv61         .5fMu3o:eeeeeeeeeeeeeeee",
"erereerrerreerer<9talbmmb6@         .2fNu3o=:eeeerereerreerr",
"%%%%%%%%%%%=%%%%35hzjcMmv61          4fMu2Xo%%%%%%o%%%%%%%=%",
"===-------=%%%=-36gljzcmv6@ xZo    VC2fMu2=;--%-=:=-=---=%%%",
"rrrrerrrrr,-%:,r85gzhjhnn61 DJ<    HG2fMp3rrrrrreerrrrre,=%:",
"rreeeeeeeer,%:r,85gg6aznv61 DJ>    HG2fMu3,reeeeeeeeeeeer:%,",
"eeeeeeeeeeeeo,rr75hg2pzmn61 BF-    SA2dmu3,eeeeeeeeeeeeer:oe",
"eeeeeeeeeee,%:r,86jg4pjmb5+          5pzu4eeeeeeeeeeeeeer:oe",
"eeeeeeeeeeeeo:r,>;ui5pjccgu+        .5pzy4,<eeeeeeeeeeeee:oe",
"rerrereeeee-==,rer444pzjlMz5O       .5pzy4rrrrrrrrrereee,=o:",
"::::=-:--:-%%%=::-&--3ygzzjg01     @5hpy&=:=::==::=::-::=%%=",
"o%%o%o%oooo%%%o#%%%%%o1dhghzp6O XX 6uju1%%%%%%%o%%%%%ooo%%%%",
"eeeeeeeeeeeer--#%:<e,rr352uzjg54252gg5$=:eeeeeeeeeeeeeeeeee-",
"eeeeeeeereeer,:o:errr:9wpuszccdsdddzjp4>eeeeeeeeeeeeeeeeere,",
"eeeeeeeeeeeeer:oeree,;5fzjjhvmmMmNmmmza2eeeeeeeeeeeeeeeeeeer",
"eeeeeeeeeeeerr:oeee<8yfcnnnbmmmmmnmmmnzfq8eeeeeeeeeeeeeeeeee",
"eeeeeeeeeeeeer,oere<2azmmmmmmmmmmmmmmmvzy2eeeeeeeeeeeeeeeeer",
"eeeeeeeeeeeerr:%,rr<5pjnmmnmmmmmmmmmmmvjy4,eeeeeeeeeeeeeeeee",
"eeeeeeeeeeeer:-%-:er5dznmmmmmnmmmmmmmmvzu4errereeeeeeerrree:",
"%%%=%%%%%%%%%%oo%%%%2fNmmmmmmmmmmnmmmmmmu4%%%%%%%%=%%%%%%%%o",
"-%%%=::==---=-----&3pjNmmnmmmmmmmmmmmmmmu3-&--=%%%=--:===-==",
"e-%=:ereererrrrrrr4yjvmmmmmmmmmmnmmnmmmmu4rrrr:-%-eeeeerrrrr",
"e,%:eeeeeeeereeeee8tjvmmmmmmmmmbjbmmmmmmlf49eee-oeeeeeeerree",
"ee%:eeeeeeeeeeeeee4ylvmmmmnmmmmnjvmmmmmmzj67eer:oeeeeeeeeeee",
"eeo:eeeeeeeeeeeeee4ylvmmmmmmnmmnjvmmmmmmch57eee:oeeeeeeeeeee",
"eeo:eeeeeeeeeeeeee4ylzmmnmmmmmvjdhvmmmbvzg53eer:oeeeeeeeeeee",
"e:o-,eeerreereeerr40kvMmmmmmmmzf2plmMmchlh57rr,-%:eeeeeeeeee",
":=%==,,,:,e:,,,e73dgllznmzcmczzf4azzcmcjlg57,,-%%=-e:ee::e:e",
"%%o%o%oooooooooo36gzllkbnjcmzjjf2pljzmcjlh53%%%%%%%%%ooo%%%%",
"eeeeeeeeeeee,,:o35gzzlllzmvzzjt4 16gllzzlh57,eeeeeeeeeeeeeee",
"eeereerrrrrrrr,o75gksgjzjbcjfd2+ @5gllgdjh59eerererrrrreeeee",
"eeeeeeeeeeeerr,o86hg2pzjzjjzu2   16gzzp1fj63eeeeeeeeeeeeeeee",
"eeeeeeeeeeeeer,o<9yy5pzppjzzi4   .Otpzgdpy>>eeeeeeeeeeeeeeee",
"eeeeeeeeeeeeer:o,,425pz65jjju5     2tjllt3eeeeeeeeeeeeeeeeee",
"eerrreeeeeeeer:o,e,<500>e60065,:,X 26tt6>eeeeeeeeeeeeeeeeeee",
"rerrrrrrrerrrr,o=,r,873<r34343err=X33114:rrrrrrerrrrrrrreerr",
"=-=============oo=======%===  =%====o Xo%-=-%-===-==========",
"%%%%%%%%%%%%=%====o%%%=%%%%XXX%%%%%XXXo=-%%%%%%=%%%%%%%%%%=%",
"rrrrrr:=%=,errrerrrr,rrrrr- -:-%:rr Xrrrerrrrrrrrrre:==:eeee",
"eeeeree:%,eeeeee,eeerrr,eeeeee-=erre,rr,eeeereeeeeeee%%eeeee",
"eeeeeer,%ereeeeereeerrr,eeeeer-%reeeerr,eeeeeeeeeeeee%=eeeee",
"eeeeeer:oeeeeeeeeeeee,rreeeeer:=reeee<rreeeeeeeeeeeee==eeeee",
"eeeeeee,oeeeeeeeeeeer<eeeeeeer:%rreeeeeeeeeeeeeeeeeee=%eeeee",
"rrrree,=o:eeeeeerrrrrrerrrrrr:-%:rrreererrreerrerrre:==eeeee",
",,,,,,==%=:,:,,,,,,,:,,:,:,,:-%%=:,,e::e:eee:::e:ee:==%=:ee:",
"o%oooo%%%%oo%%%ooooooooo%oo%%%%%%oooooooooooooooooo%%%%%%%oo"
};
